<svg width="41" height="36" viewBox="0 0 41 36" xmlns="http://www.w3.org/2000/svg"><style>.a{opacity:0.7;}</style><title>  Twinklies</title><g fill="none"><g fill="#FFF"><path d="M16.7 3C10.6 9.9 9.7 9.7 6.7 1 9.8 9.7 9.2 10.4 0 8.5 9.2 10.4 9.4 11.2 3.3 18 9.4 11.1 10.2 11.3 13.3 20 10.2 11.3 10.8 10.6 20 12.5 10.8 10.7 10.4 9.9 16.7 3" class="a"/><path d="M37.7 13.2C27.4 19.2 24.7 18.5 18.7 8.2 24.7 18.5 24 21.3 13.7 27.3 24 21.3 26.8 21.9 32.7 32.2 26.8 21.9 27.4 19.2 37.7 13.2" opacity="0.5"/><path d="M24.5 16C25.8 19.5 25.5 20.2 22 21.5 25.5 20.2 26.2 20.5 27.5 24 26.2 20.5 26.5 19.8 30 18.5 26.6 19.8 25.9 19.5 24.5 16"/><path d="M23.5 0C24.8 3.5 24.5 4.2 21 5.5 24.5 4.2 25.2 4.5 26.5 8 25.2 4.5 25.5 3.8 29 2.5 25.5 3.8 24.8 3.5 23.5 0" class="a"/><path d="M8.5 7C9.8 10.5 9.5 11.2 6 12.5 9.5 11.2 10.2 11.5 11.5 15 10.2 11.5 10.5 10.8 14 9.5 10.5 10.8 9.8 10.5 8.5 7" opacity="0.8"/><path d="M11.5 24C12.8 27.5 12.5 28.2 9 29.5 12.5 28.2 13.2 28.5 14.5 32 13.2 28.5 13.5 27.8 17 26.5 13.6 27.8 12.9 27.5 11.5 24" opacity="0.6"/></g></g></svg>