<svg width="11" height="17" viewBox="0 0 11 17" xmlns="http://www.w3.org/2000/svg"><title>  Group 3</title><defs><polygon points="0 0 11 0 11 17 0 17"/></defs><g fill="none"><g transform="translate(-496 -9)translate(496 9)"><mask fill="white"></mask><path d="M0 4C0 3.8-0.1 2.2 1 1 1.4 0.5 2.2 0 3.5 0 5.7 0 7 1.7 7 4.3L7 10.4 4.9 10.4 4.9 4.3C4.9 2.9 4.4 2.1 3.5 2.1 2.8 2.1 2.6 2.4 2.5 2.5 2.1 2.9 2.1 3.6 2.1 3.9L2.3 11.5C2.5 13.8 3.6 14.9 5.7 14.9 6.7 14.9 7.4 14.6 7.9 14.1 9 13 8.9 11.1 8.9 11.1L8.9 5.9 11 5.9 11 11C11 11.1 11.1 13.8 9.5 15.5 8.5 16.5 7.3 17 5.7 17 2.8 17 0.2 15.3 0.2 11.8L0 4Z" mask="url(#mask-2)" fill="#353535"/></g></g></svg>