<?xml version="1.0" encoding="UTF-8"?>
<svg width="20px" height="19px" viewBox="0 0 20 19" version="1.1" xmlns="http://www.w3.org/2000/svg" xmlns:xlink="http://www.w3.org/1999/xlink">
    <!-- Generator: Sketch 52.3 (67297) - http://www.bohemiancoding.com/sketch -->
    <title>Fill 1</title>
    <desc>Created with Sketch.</desc>
    <g id="Spex" stroke="none" stroke-width="1" fill="none" fill-rule="evenodd">
        <g id="ICONZZZ" transform="translate(-186.000000, -102.000000)" fill="white">
            <path d="M187.27,102 L186,103.27 L188.1,105.37 C186.79,107.07 186,109.19 186,111.5 C186,115.2 188.01,118.42 190.99,120.15 L191.99,118.42 C189.61,117.03 188,114.46 188,111.5 C188,109.74 188.57,108.12 189.53,106.81 L190.96,108.25 C190.36,109.18 190,110.3 190,111.5 C190,113.72 191.21,115.65 193,116.69 L194,114.95 C192.81,114.25 192,112.98 192,111.5 C192,110.85 192.17,110.25 192.44,109.71 L194.02,111.29 L194,111.5 C194,112.6 194.9,113.5 196,113.5 L196.21,113.48 L196.22,113.49 L203.73,121 L205,119.73 L188.27,103 L187.27,102 Z M201.384,105.582 C202.991,107.045 204,109.154 204,111.5 C204,112.85 203.65,114.12 203.05,115.24 L204.52,116.71 C205.46,115.19 206,113.41 206,111.5 C206,108.613 204.774,106.011 202.816,104.185 L201.384,105.582 Z M198.6,108.459 C199.457,109.193 200,110.283 200,111.5 C200,111.71 199.98,111.92 199.95,112.13 L201.56,113.74 C201.84,113.05 202,112.29 202,111.5 C202,109.729 201.229,108.135 200.006,107.036 L198.6,108.459 Z" id="Fill-1"></path>
        </g>
    </g>
</svg>