<?xml version="1.0" encoding="UTF-8"?>
<svg width="66px" height="66px" viewBox="0 0 66 66" version="1.1" xmlns="http://www.w3.org/2000/svg" xmlns:xlink="http://www.w3.org/1999/xlink">
    <!-- Generator: Sketch 61 (89581) - https://sketch.com -->
    <title>Printer Icon</title>
    <desc>Created with Sketch.</desc>
    <defs>
        <polygon id="path-1" points="0.0005 0.6254 64.479 0.6254 64.479 49.9994 0.0005 49.9994"></polygon>
        <polygon id="path-3" points="0.9384 0.5 23.2534 0.5 23.2534 32.2157 0.9384 32.2157"></polygon>
    </defs>
    <g id="Export-Nov2019b" stroke="none" stroke-width="1" fill="none" fill-rule="evenodd">
        <g id="Artboard" transform="translate(-464.000000, -1292.000000)">
            <g id="Printer-Icon" transform="translate(465.000000, 1293.000000)">
                <rect id="Rectangle" stroke="#FFFFFF" x="0" y="0" width="64" height="64"></rect>
                <g id="Group-9" transform="translate(0.000000, 2.000000)">
                    <g id="Group-3" transform="translate(0.000000, 10.500400)">
                        <mask id="mask-2" fill="white">
                            <use xlink:href="#path-1"></use>
                        </mask>
                        <g id="Clip-2"></g>
                        <path d="M52.3985,45.2434 L11.9295,45.2434 C7.9275,45.2434 4.6815,41.9964 4.6815,37.9944 C4.6815,33.9934 7.9275,30.7464 11.9295,30.7464 L52.3985,30.7464 C56.4005,30.7464 59.6475,33.9174 59.6475,37.9944 C59.6475,41.9964 56.4005,45.2434 52.3985,45.2434 M63.8755,34.8244 C63.8755,34.7484 53.1535,6.6654 53.1535,6.6654 C51.9455,3.1174 48.6995,0.6254 44.8485,0.6254 L41.2995,0.6254 L41.2995,5.3824 L44.8485,5.3824 C46.5855,5.3824 48.0955,6.5144 48.6235,8.1004 L56.3245,26.7454 C55.1165,26.2924 53.7575,26.0654 52.3235,26.0654 L11.9295,26.0654 C10.5705,26.0654 9.2115,26.3684 7.9275,26.7454 L15.7045,8.1004 C16.2325,6.4394 17.7435,5.3824 19.4045,5.3824 L22.9525,5.3824 L22.9525,0.6254 L19.4045,0.6254 C15.6285,0.6254 12.3065,3.0414 11.1745,6.6654 C11.1745,6.6654 0.4535,34.7484 0.4535,34.8244 C0.1505,35.8814 0.0005,36.9384 0.0005,37.9944 C0.0005,44.5634 5.4365,49.9994 12.0045,49.9994 L52.4745,49.9994 C59.1185,49.9994 64.4795,44.5634 64.4795,37.9944 C64.4035,36.9384 64.1775,35.8054 63.8755,34.8244" id="Fill-1" fill="#2A319D" mask="url(#mask-2)"></path>
                    </g>
                    <path d="M52.0967,46.0793 L51.7417,46.0793 C50.4577,46.0793 49.3257,47.1363 49.3257,48.4953 C49.3257,49.7793 50.3827,50.9123 51.7417,50.9123 L52.1727,50.9123 C53.4557,50.9123 54.5887,49.8543 54.5887,48.4953 C54.5127,47.2123 53.4557,46.0793 52.0967,46.0793" id="Fill-4" fill="#2A319D"></path>
                    <g id="Group-8" transform="translate(20.000000, 0.500400)">
                        <mask id="mask-4" fill="white">
                            <use xlink:href="#path-3"></use>
                        </mask>
                        <g id="Clip-7"></g>
                        <polygon id="Fill-6" fill="#2A319D" mask="url(#mask-4)" points="17.4434 19.8357 17.4434 0.4997 6.8944 0.4997 6.8944 19.8357 0.9384 19.8357 12.0954 32.2157 23.2534 19.8357"></polygon>
                    </g>
                </g>
            </g>
        </g>
    </g>
</svg>