<svg width="20" height="17" viewBox="0 0 20 17" xmlns="http://www.w3.org/2000/svg"><title> Signal Icon</title><desc> Created with Sketch.</desc><defs><polygon points="0 0 20 0 20 16.1 0 16.1"/></defs><g fill="none"><g transform="translate(-14 -13)translate(14 12)"><rect x="0.5" y="0.5" width="19" height="18"/><g transform="translate(0 1)"><mask fill="white"><use xlink:href="#path-1"/></mask><path d="M3.3 0C1.3 1.8 0 4.5 0 7.5 0 11.2 2 14.4 5 16.1L6 14.4C3.6 13 2 10.4 2 7.5 2 5.1 3 2.9 4.7 1.5L3.3 0ZM15.4 1.5C17 3 18 5.1 18 7.5 18 10.4 16.4 13 14 14.4L15 16.1C18 14.4 20 11.2 20 7.5 20 4.6 18.8 2 16.8 0.1L15.4 1.5ZM6.1 2.9C4.8 4 4 5.6 4 7.5 4 9.7 5.2 11.6 7 12.6L8 10.9C6.8 10.2 6 8.9 6 7.5 6 6.2 6.6 5 7.5 4.3L6.1 2.9ZM12.6 4.4C13.5 5.2 14 6.2 14 7.5 14 8.9 13.2 10.2 12 10.9L13 12.6C14.8 11.6 16 9.7 16 7.5 16 5.7 15.2 4.1 14 3L12.6 4.4ZM10 5.5C8.9 5.5 8 6.4 8 7.5 8 8.6 8.9 9.5 10 9.5 11.1 9.5 12 8.6 12 7.5 12 6.4 11.1 5.5 10 5.5L10 5.5Z" mask="url(#mask-2)" fill="#FFF"/></g></g></g></svg>