<svg width="196" height="15" viewBox="0 0 196 15"
xmlns="http://www.w3.org/2000/svg"><title>Right Tear</title><g
fill="none"><g transform="translate(-1372 -241)translate(1372
241)"><line x1="0.5" y1="0.5" x2="0.5" y2="14.5"
stroke="#A6A9DD"/><polygon points="23 3 17.3 9 11.5 3 5.8 9 0 3 0 4.4
5.8 10.4 11.5 4.4 17.3 10.4 23 4.4 28.8 10.4 34.5 4.4 40.3 10.4 46 4.4
51.8 10.4 57.5 4.4 63.3 10.4 69.1 4.4 74.8 10.4 80.6 4.4 86.3 10.4
92.1 4.4 97.8 10.4 103.6 4.4 109.4 10.4 115.1 4.4 120.9 10.4 126.6 4.4
132.4 10.4 138.2 4.4 143.9 10.4 149.7 4.4 155.4 10.4 161.2 4.4 167
10.4 172.7 4.4 178.5 10.4 184.2 4.4 190 10.4 195.8 4.4 195.8 3 190 9
184.2 3 178.5 9 172.7 3 167 9 161.2 3 155.4 9 149.7 3 143.9 9 138.2 3
132.4 9 126.6 3 120.9 9 115.1 3 109.4 9 103.6 3 97.8 9 92.1 3 86.3 9
80.6 3 74.8 9 69.1 3 63.3 9 57.5 3 51.8 9 46 3 40.3 9 34.5 3 28.8 9"
fill="#A6A9DD"/></g></g></svg>
