<svg width="596" height="678" viewBox="0 0 596 678" fill="none" xmlns="http://www.w3.org/2000/svg">
<path d="M-45.4156 640.731L17.0066 676.771V748.85L-45.4156 784.889L-107.838 748.85V676.771L-45.4156 640.731Z" stroke="url(#paint0_radial_953_23988)" stroke-width="3"/>
<path d="M-45.4156 208.391L17.0066 244.43V316.509L-45.4156 352.549L-107.838 316.509V244.43L-45.4156 208.391Z" stroke="url(#paint1_radial_953_23988)" stroke-width="3"/>
<path d="M-45.4156 424.578L17.0066 460.617V532.696L-45.4156 568.736L-107.838 532.696V460.617L-45.4156 424.578Z" stroke="url(#paint2_radial_953_23988)" stroke-width="3"/>
<path d="M-45.4156 -7.7961L17.0066 28.2433V100.322L-45.4156 136.362L-107.838 100.322V28.2433L-45.4156 -7.7961Z" stroke="url(#paint3_radial_953_23988)" stroke-width="3"/>
<path d="M-107.852 532.672L-45.43 568.711V640.79L-107.852 676.829L-170.274 640.79V568.711L-107.852 532.672Z" stroke="url(#paint4_radial_953_23988)" stroke-width="3"/>
<path d="M-107.852 100.298L-45.43 136.337V208.416L-107.852 244.456L-170.274 208.416V136.337L-107.852 100.298Z" stroke="url(#paint5_radial_953_23988)" stroke-width="3"/>
<path d="M-107.852 316.485L-45.43 352.524V424.603L-107.852 460.642L-170.274 424.603V352.524L-107.852 316.485Z" stroke="url(#paint6_radial_953_23988)" stroke-width="3"/>
<path d="M-107.852 -115.889L-45.4302 -79.8497V-7.77084L-107.852 28.2686L-170.274 -7.77084V-79.8497L-107.852 -115.889Z" stroke="url(#paint7_radial_953_23988)" stroke-width="3"/>
<path d="M204.331 640.731L266.753 676.771V748.85L204.331 784.889L141.909 748.85V676.771L204.331 640.731Z" stroke="url(#paint8_radial_953_23988)" stroke-width="3"/>
<path d="M204.331 208.391L266.753 244.43V316.509L204.331 352.549L141.909 316.509V244.43L204.331 208.391Z" stroke="url(#paint9_radial_953_23988)" stroke-width="3"/>
<path d="M204.331 424.578L266.753 460.617V532.696L204.331 568.736L141.909 532.696V460.617L204.331 424.578Z" stroke="url(#paint10_radial_953_23988)" stroke-width="3"/>
<path d="M204.331 -7.7961L266.753 28.2433V100.322L204.331 136.362L141.909 100.322V28.2433L204.331 -7.7961Z" stroke="url(#paint11_radial_953_23988)" stroke-width="3"/>
<path d="M141.894 532.672L204.316 568.711V640.79L141.894 676.829L79.472 640.79V568.711L141.894 532.672Z" stroke="url(#paint12_radial_953_23988)" stroke-width="3"/>
<path d="M141.894 100.298L204.316 136.337V208.416L141.894 244.456L79.472 208.416V136.337L141.894 100.298Z" stroke="url(#paint13_radial_953_23988)" stroke-width="3"/>
<path d="M141.894 316.485L204.316 352.524V424.603L141.894 460.642L79.472 424.603V352.524L141.894 316.485Z" stroke="url(#paint14_radial_953_23988)" stroke-width="3"/>
<path d="M141.894 -115.889L204.316 -79.8497V-7.77084L141.894 28.2686L79.472 -7.77084V-79.8497L141.894 -115.889Z" stroke="url(#paint15_radial_953_23988)" stroke-width="3"/>
<path d="M329.204 640.731L391.626 676.771V748.85L329.204 784.889L266.782 748.85V676.771L329.204 640.731Z" stroke="url(#paint16_radial_953_23988)" stroke-width="3"/>
<path d="M329.204 208.391L391.626 244.43V316.509L329.204 352.549L266.782 316.509V244.43L329.204 208.391Z" stroke="url(#paint17_radial_953_23988)" stroke-width="3"/>
<path d="M329.204 424.578L391.626 460.617V532.696L329.204 568.736L266.782 532.696V460.617L329.204 424.578Z" stroke="url(#paint18_radial_953_23988)" stroke-width="3"/>
<path d="M329.204 -7.7961L391.626 28.2433V100.322L329.204 136.362L266.782 100.322V28.2433L329.204 -7.7961Z" stroke="url(#paint19_radial_953_23988)" stroke-width="3"/>
<path d="M266.767 532.672L329.189 568.711V640.79L266.767 676.829L204.345 640.79V568.711L266.767 532.672Z" stroke="url(#paint20_radial_953_23988)" stroke-width="3"/>
<path d="M266.767 100.298L329.189 136.337V208.416L266.767 244.456L204.345 208.416V136.337L266.767 100.298Z" stroke="url(#paint21_radial_953_23988)" stroke-width="3"/>
<path d="M266.767 316.485L329.189 352.524V424.603L266.767 460.642L204.345 424.603V352.524L266.767 316.485Z" stroke="url(#paint22_radial_953_23988)" stroke-width="3"/>
<path d="M266.767 -115.889L329.189 -79.8497V-7.77084L266.767 28.2686L204.345 -7.77084V-79.8497L266.767 -115.889Z" stroke="url(#paint23_radial_953_23988)" stroke-width="3"/>
<path d="M454.077 640.731L516.499 676.771V748.85L454.077 784.889L391.655 748.85V676.771L454.077 640.731Z" stroke="url(#paint24_radial_953_23988)" stroke-width="3"/>
<path d="M454.077 208.391L516.499 244.43V316.509L454.077 352.549L391.655 316.509V244.43L454.077 208.391Z" stroke="url(#paint25_radial_953_23988)" stroke-width="3"/>
<path d="M454.077 424.578L516.499 460.617V532.696L454.077 568.736L391.655 532.696V460.617L454.077 424.578Z" stroke="url(#paint26_radial_953_23988)" stroke-width="3"/>
<path d="M454.077 -7.7961L516.499 28.2433V100.322L454.077 136.362L391.655 100.322V28.2433L454.077 -7.7961Z" stroke="url(#paint27_radial_953_23988)" stroke-width="3"/>
<path d="M391.64 532.672L454.063 568.711V640.79L391.64 676.829L329.218 640.79V568.711L391.64 532.672Z" stroke="url(#paint28_radial_953_23988)" stroke-width="3"/>
<path d="M391.64 100.298L454.063 136.337V208.416L391.64 244.456L329.218 208.416V136.337L391.64 100.298Z" stroke="url(#paint29_radial_953_23988)" stroke-width="3"/>
<path d="M391.64 316.485L454.063 352.524V424.603L391.64 460.642L329.218 424.603V352.524L391.64 316.485Z" stroke="url(#paint30_radial_953_23988)" stroke-width="3"/>
<path d="M391.64 -115.889L454.063 -79.8497V-7.77084L391.64 28.2686L329.218 -7.77084V-79.8497L391.64 -115.889Z" stroke="url(#paint31_radial_953_23988)" stroke-width="3"/>
<path d="M578.95 640.731L641.372 676.771V748.85L578.95 784.889L516.528 748.85V676.771L578.95 640.731Z" stroke="url(#paint32_radial_953_23988)" stroke-width="3"/>
<path d="M578.95 208.391L641.372 244.43V316.509L578.95 352.549L516.528 316.509V244.43L578.95 208.391Z" stroke="url(#paint33_radial_953_23988)" stroke-width="3"/>
<path d="M578.95 424.578L641.372 460.617V532.696L578.95 568.736L516.528 532.696V460.617L578.95 424.578Z" stroke="url(#paint34_radial_953_23988)" stroke-width="3"/>
<path d="M578.95 -7.7961L641.372 28.2433V100.322L578.95 136.362L516.528 100.322V28.2433L578.95 -7.7961Z" stroke="url(#paint35_radial_953_23988)" stroke-width="3"/>
<path d="M516.514 532.672L578.936 568.711V640.79L516.514 676.829L454.091 640.79V568.711L516.514 532.672Z" stroke="url(#paint36_radial_953_23988)" stroke-width="3"/>
<path d="M516.514 100.298L578.936 136.337V208.416L516.514 244.456L454.091 208.416V136.337L516.514 100.298Z" stroke="url(#paint37_radial_953_23988)" stroke-width="3"/>
<path d="M516.514 316.485L578.936 352.524V424.603L516.514 460.642L454.091 424.603V352.524L516.514 316.485Z" stroke="url(#paint38_radial_953_23988)" stroke-width="3"/>
<path d="M516.514 -115.889L578.936 -79.8497V-7.77084L516.514 28.2686L454.091 -7.77084V-79.8497L516.514 -115.889Z" stroke="url(#paint39_radial_953_23988)" stroke-width="3"/>
<path d="M703.852 640.731L766.274 676.771V748.85L703.852 784.889L641.43 748.85V676.771L703.852 640.731Z" stroke="url(#paint40_radial_953_23988)" stroke-width="3"/>
<path d="M703.823 208.391L766.245 244.43V316.509L703.823 352.549L641.401 316.509V244.43L703.823 208.391Z" stroke="url(#paint41_radial_953_23988)" stroke-width="3"/>
<path d="M703.823 424.578L766.245 460.617V532.696L703.823 568.736L641.401 532.696V460.617L703.823 424.578Z" stroke="url(#paint42_radial_953_23988)" stroke-width="3"/>
<path d="M703.823 -7.7961L766.245 28.2433V100.322L703.823 136.362L641.401 100.322V28.2433L703.823 -7.7961Z" stroke="url(#paint43_radial_953_23988)" stroke-width="3"/>
<path d="M641.387 532.672L703.809 568.711V640.79L641.387 676.829L578.965 640.79V568.711L641.387 532.672Z" stroke="url(#paint44_radial_953_23988)" stroke-width="3"/>
<path d="M641.387 100.298L703.809 136.337V208.416L641.387 244.456L578.965 208.416V136.337L641.387 100.298Z" stroke="url(#paint45_radial_953_23988)" stroke-width="3"/>
<path d="M641.387 316.485L703.809 352.524V424.603L641.387 460.642L578.965 424.603V352.524L641.387 316.485Z" stroke="url(#paint46_radial_953_23988)" stroke-width="3"/>
<path d="M641.387 -115.889L703.809 -79.8497V-7.77084L641.387 28.2686L578.965 -7.77084V-79.8497L641.387 -115.889Z" stroke="url(#paint47_radial_953_23988)" stroke-width="3"/>
<path d="M79.4822 640.731L141.904 676.771V748.85L79.4822 784.889L17.0601 748.85V676.771L79.4822 640.731Z" stroke="url(#paint48_radial_953_23988)" stroke-width="3"/>
<path d="M79.4822 208.391L141.904 244.43V316.509L79.4822 352.549L17.0601 316.509V244.43L79.4822 208.391Z" stroke="url(#paint49_radial_953_23988)" stroke-width="3"/>
<path d="M79.4822 424.578L141.904 460.617V532.696L79.4822 568.736L17.0601 532.696V460.617L79.4822 424.578Z" stroke="url(#paint50_radial_953_23988)" stroke-width="3"/>
<path d="M79.4822 -7.7961L141.904 28.2433V100.322L79.4822 136.362L17.0601 100.322V28.2433L79.4822 -7.7961Z" stroke="url(#paint51_radial_953_23988)" stroke-width="3"/>
<path d="M17.0457 532.672L79.4678 568.711V640.79L17.0457 676.829L-45.3765 640.79V568.711L17.0457 532.672Z" stroke="url(#paint52_radial_953_23988)" stroke-width="3"/>
<path d="M17.0457 100.298L79.4678 136.337V208.416L17.0457 244.456L-45.3765 208.416V136.337L17.0457 100.298Z" stroke="url(#paint53_radial_953_23988)" stroke-width="3"/>
<path d="M17.0457 316.485L79.4678 352.524V424.603L17.0457 460.642L-45.3765 424.603V352.524L17.0457 316.485Z" stroke="url(#paint54_radial_953_23988)" stroke-width="3"/>
<path d="M17.0457 -115.889L79.4678 -79.8497V-7.77084L17.0457 28.2686L-45.3765 -7.77084V-79.8497L17.0457 -115.889Z" stroke="url(#paint55_radial_953_23988)" stroke-width="3"/>
<defs>
<radialGradient id="paint0_radial_953_23988" cx="0" cy="0" r="1" gradientUnits="userSpaceOnUse" gradientTransform="translate(298 136.542) rotate(83.9727) scale(527.358 456.705)">
<stop stop-color="#F3F3F3"/>
<stop offset="1" stop-color="#FAFAFA"/>
</radialGradient>
<radialGradient id="paint1_radial_953_23988" cx="0" cy="0" r="1" gradientUnits="userSpaceOnUse" gradientTransform="translate(298 136.542) rotate(83.9727) scale(527.358 456.705)">
<stop stop-color="#F3F3F3"/>
<stop offset="1" stop-color="#FAFAFA"/>
</radialGradient>
<radialGradient id="paint2_radial_953_23988" cx="0" cy="0" r="1" gradientUnits="userSpaceOnUse" gradientTransform="translate(298 136.542) rotate(83.9727) scale(527.358 456.705)">
<stop stop-color="#F3F3F3"/>
<stop offset="1" stop-color="#FAFAFA"/>
</radialGradient>
<radialGradient id="paint3_radial_953_23988" cx="0" cy="0" r="1" gradientUnits="userSpaceOnUse" gradientTransform="translate(298 136.542) rotate(83.9727) scale(527.358 456.705)">
<stop stop-color="#F3F3F3"/>
<stop offset="1" stop-color="#FAFAFA"/>
</radialGradient>
<radialGradient id="paint4_radial_953_23988" cx="0" cy="0" r="1" gradientUnits="userSpaceOnUse" gradientTransform="translate(298 136.542) rotate(83.9727) scale(527.358 456.705)">
<stop stop-color="#F3F3F3"/>
<stop offset="1" stop-color="#FAFAFA"/>
</radialGradient>
<radialGradient id="paint5_radial_953_23988" cx="0" cy="0" r="1" gradientUnits="userSpaceOnUse" gradientTransform="translate(298 136.542) rotate(83.9727) scale(527.358 456.705)">
<stop stop-color="#F3F3F3"/>
<stop offset="1" stop-color="#FAFAFA"/>
</radialGradient>
<radialGradient id="paint6_radial_953_23988" cx="0" cy="0" r="1" gradientUnits="userSpaceOnUse" gradientTransform="translate(298 136.542) rotate(83.9727) scale(527.358 456.705)">
<stop stop-color="#F3F3F3"/>
<stop offset="1" stop-color="#FAFAFA"/>
</radialGradient>
<radialGradient id="paint7_radial_953_23988" cx="0" cy="0" r="1" gradientUnits="userSpaceOnUse" gradientTransform="translate(298 136.542) rotate(83.9727) scale(527.358 456.705)">
<stop stop-color="#F3F3F3"/>
<stop offset="1" stop-color="#FAFAFA"/>
</radialGradient>
<radialGradient id="paint8_radial_953_23988" cx="0" cy="0" r="1" gradientUnits="userSpaceOnUse" gradientTransform="translate(298 136.542) rotate(83.9727) scale(527.358 456.705)">
<stop stop-color="#F3F3F3"/>
<stop offset="1" stop-color="#FAFAFA"/>
</radialGradient>
<radialGradient id="paint9_radial_953_23988" cx="0" cy="0" r="1" gradientUnits="userSpaceOnUse" gradientTransform="translate(298 136.542) rotate(83.9727) scale(527.358 456.705)">
<stop stop-color="#F3F3F3"/>
<stop offset="1" stop-color="#FAFAFA"/>
</radialGradient>
<radialGradient id="paint10_radial_953_23988" cx="0" cy="0" r="1" gradientUnits="userSpaceOnUse" gradientTransform="translate(298 136.542) rotate(83.9727) scale(527.358 456.705)">
<stop stop-color="#F3F3F3"/>
<stop offset="1" stop-color="#FAFAFA"/>
</radialGradient>
<radialGradient id="paint11_radial_953_23988" cx="0" cy="0" r="1" gradientUnits="userSpaceOnUse" gradientTransform="translate(298 136.542) rotate(83.9727) scale(527.358 456.705)">
<stop stop-color="#F3F3F3"/>
<stop offset="1" stop-color="#FAFAFA"/>
</radialGradient>
<radialGradient id="paint12_radial_953_23988" cx="0" cy="0" r="1" gradientUnits="userSpaceOnUse" gradientTransform="translate(298 136.542) rotate(83.9727) scale(527.358 456.705)">
<stop stop-color="#F3F3F3"/>
<stop offset="1" stop-color="#FAFAFA"/>
</radialGradient>
<radialGradient id="paint13_radial_953_23988" cx="0" cy="0" r="1" gradientUnits="userSpaceOnUse" gradientTransform="translate(298 136.542) rotate(83.9727) scale(527.358 456.705)">
<stop stop-color="#F3F3F3"/>
<stop offset="1" stop-color="#FAFAFA"/>
</radialGradient>
<radialGradient id="paint14_radial_953_23988" cx="0" cy="0" r="1" gradientUnits="userSpaceOnUse" gradientTransform="translate(298 136.542) rotate(83.9727) scale(527.358 456.705)">
<stop stop-color="#F3F3F3"/>
<stop offset="1" stop-color="#FAFAFA"/>
</radialGradient>
<radialGradient id="paint15_radial_953_23988" cx="0" cy="0" r="1" gradientUnits="userSpaceOnUse" gradientTransform="translate(298 136.542) rotate(83.9727) scale(527.358 456.705)">
<stop stop-color="#F3F3F3"/>
<stop offset="1" stop-color="#FAFAFA"/>
</radialGradient>
<radialGradient id="paint16_radial_953_23988" cx="0" cy="0" r="1" gradientUnits="userSpaceOnUse" gradientTransform="translate(298 136.542) rotate(83.9727) scale(527.358 456.705)">
<stop stop-color="#F3F3F3"/>
<stop offset="1" stop-color="#FAFAFA"/>
</radialGradient>
<radialGradient id="paint17_radial_953_23988" cx="0" cy="0" r="1" gradientUnits="userSpaceOnUse" gradientTransform="translate(298 136.542) rotate(83.9727) scale(527.358 456.705)">
<stop stop-color="#F3F3F3"/>
<stop offset="1" stop-color="#FAFAFA"/>
</radialGradient>
<radialGradient id="paint18_radial_953_23988" cx="0" cy="0" r="1" gradientUnits="userSpaceOnUse" gradientTransform="translate(298 136.542) rotate(83.9727) scale(527.358 456.705)">
<stop stop-color="#F3F3F3"/>
<stop offset="1" stop-color="#FAFAFA"/>
</radialGradient>
<radialGradient id="paint19_radial_953_23988" cx="0" cy="0" r="1" gradientUnits="userSpaceOnUse" gradientTransform="translate(298 136.542) rotate(83.9727) scale(527.358 456.705)">
<stop stop-color="#F3F3F3"/>
<stop offset="1" stop-color="#FAFAFA"/>
</radialGradient>
<radialGradient id="paint20_radial_953_23988" cx="0" cy="0" r="1" gradientUnits="userSpaceOnUse" gradientTransform="translate(298 136.542) rotate(83.9727) scale(527.358 456.705)">
<stop stop-color="#F3F3F3"/>
<stop offset="1" stop-color="#FAFAFA"/>
</radialGradient>
<radialGradient id="paint21_radial_953_23988" cx="0" cy="0" r="1" gradientUnits="userSpaceOnUse" gradientTransform="translate(298 136.542) rotate(83.9727) scale(527.358 456.705)">
<stop stop-color="#F3F3F3"/>
<stop offset="1" stop-color="#FAFAFA"/>
</radialGradient>
<radialGradient id="paint22_radial_953_23988" cx="0" cy="0" r="1" gradientUnits="userSpaceOnUse" gradientTransform="translate(298 136.542) rotate(83.9727) scale(527.358 456.705)">
<stop stop-color="#F3F3F3"/>
<stop offset="1" stop-color="#FAFAFA"/>
</radialGradient>
<radialGradient id="paint23_radial_953_23988" cx="0" cy="0" r="1" gradientUnits="userSpaceOnUse" gradientTransform="translate(298 136.542) rotate(83.9727) scale(527.358 456.705)">
<stop stop-color="#F3F3F3"/>
<stop offset="1" stop-color="#FAFAFA"/>
</radialGradient>
<radialGradient id="paint24_radial_953_23988" cx="0" cy="0" r="1" gradientUnits="userSpaceOnUse" gradientTransform="translate(298 136.542) rotate(83.9727) scale(527.358 456.705)">
<stop stop-color="#F3F3F3"/>
<stop offset="1" stop-color="#FAFAFA"/>
</radialGradient>
<radialGradient id="paint25_radial_953_23988" cx="0" cy="0" r="1" gradientUnits="userSpaceOnUse" gradientTransform="translate(298 136.542) rotate(83.9727) scale(527.358 456.705)">
<stop stop-color="#F3F3F3"/>
<stop offset="1" stop-color="#FAFAFA"/>
</radialGradient>
<radialGradient id="paint26_radial_953_23988" cx="0" cy="0" r="1" gradientUnits="userSpaceOnUse" gradientTransform="translate(298 136.542) rotate(83.9727) scale(527.358 456.705)">
<stop stop-color="#F3F3F3"/>
<stop offset="1" stop-color="#FAFAFA"/>
</radialGradient>
<radialGradient id="paint27_radial_953_23988" cx="0" cy="0" r="1" gradientUnits="userSpaceOnUse" gradientTransform="translate(298 136.542) rotate(83.9727) scale(527.358 456.705)">
<stop stop-color="#F3F3F3"/>
<stop offset="1" stop-color="#FAFAFA"/>
</radialGradient>
<radialGradient id="paint28_radial_953_23988" cx="0" cy="0" r="1" gradientUnits="userSpaceOnUse" gradientTransform="translate(298 136.542) rotate(83.9727) scale(527.358 456.705)">
<stop stop-color="#F3F3F3"/>
<stop offset="1" stop-color="#FAFAFA"/>
</radialGradient>
<radialGradient id="paint29_radial_953_23988" cx="0" cy="0" r="1" gradientUnits="userSpaceOnUse" gradientTransform="translate(298 136.542) rotate(83.9727) scale(527.358 456.705)">
<stop stop-color="#F3F3F3"/>
<stop offset="1" stop-color="#FAFAFA"/>
</radialGradient>
<radialGradient id="paint30_radial_953_23988" cx="0" cy="0" r="1" gradientUnits="userSpaceOnUse" gradientTransform="translate(298 136.542) rotate(83.9727) scale(527.358 456.705)">
<stop stop-color="#F3F3F3"/>
<stop offset="1" stop-color="#FAFAFA"/>
</radialGradient>
<radialGradient id="paint31_radial_953_23988" cx="0" cy="0" r="1" gradientUnits="userSpaceOnUse" gradientTransform="translate(298 136.542) rotate(83.9727) scale(527.358 456.705)">
<stop stop-color="#F3F3F3"/>
<stop offset="1" stop-color="#FAFAFA"/>
</radialGradient>
<radialGradient id="paint32_radial_953_23988" cx="0" cy="0" r="1" gradientUnits="userSpaceOnUse" gradientTransform="translate(298 136.542) rotate(83.9727) scale(527.358 456.705)">
<stop stop-color="#F3F3F3"/>
<stop offset="1" stop-color="#FAFAFA"/>
</radialGradient>
<radialGradient id="paint33_radial_953_23988" cx="0" cy="0" r="1" gradientUnits="userSpaceOnUse" gradientTransform="translate(298 136.542) rotate(83.9727) scale(527.358 456.705)">
<stop stop-color="#F3F3F3"/>
<stop offset="1" stop-color="#FAFAFA"/>
</radialGradient>
<radialGradient id="paint34_radial_953_23988" cx="0" cy="0" r="1" gradientUnits="userSpaceOnUse" gradientTransform="translate(298 136.542) rotate(83.9727) scale(527.358 456.705)">
<stop stop-color="#F3F3F3"/>
<stop offset="1" stop-color="#FAFAFA"/>
</radialGradient>
<radialGradient id="paint35_radial_953_23988" cx="0" cy="0" r="1" gradientUnits="userSpaceOnUse" gradientTransform="translate(298 136.542) rotate(83.9727) scale(527.358 456.705)">
<stop stop-color="#F3F3F3"/>
<stop offset="1" stop-color="#FAFAFA"/>
</radialGradient>
<radialGradient id="paint36_radial_953_23988" cx="0" cy="0" r="1" gradientUnits="userSpaceOnUse" gradientTransform="translate(298 136.542) rotate(83.9727) scale(527.358 456.705)">
<stop stop-color="#F3F3F3"/>
<stop offset="1" stop-color="#FAFAFA"/>
</radialGradient>
<radialGradient id="paint37_radial_953_23988" cx="0" cy="0" r="1" gradientUnits="userSpaceOnUse" gradientTransform="translate(298 136.542) rotate(83.9727) scale(527.358 456.705)">
<stop stop-color="#F3F3F3"/>
<stop offset="1" stop-color="#FAFAFA"/>
</radialGradient>
<radialGradient id="paint38_radial_953_23988" cx="0" cy="0" r="1" gradientUnits="userSpaceOnUse" gradientTransform="translate(298 136.542) rotate(83.9727) scale(527.358 456.705)">
<stop stop-color="#F3F3F3"/>
<stop offset="1" stop-color="#FAFAFA"/>
</radialGradient>
<radialGradient id="paint39_radial_953_23988" cx="0" cy="0" r="1" gradientUnits="userSpaceOnUse" gradientTransform="translate(298 136.542) rotate(83.9727) scale(527.358 456.705)">
<stop stop-color="#F3F3F3"/>
<stop offset="1" stop-color="#FAFAFA"/>
</radialGradient>
<radialGradient id="paint40_radial_953_23988" cx="0" cy="0" r="1" gradientUnits="userSpaceOnUse" gradientTransform="translate(298 136.542) rotate(83.9727) scale(527.358 456.705)">
<stop stop-color="#F3F3F3"/>
<stop offset="1" stop-color="#FAFAFA"/>
</radialGradient>
<radialGradient id="paint41_radial_953_23988" cx="0" cy="0" r="1" gradientUnits="userSpaceOnUse" gradientTransform="translate(298 136.542) rotate(83.9727) scale(527.358 456.705)">
<stop stop-color="#F3F3F3"/>
<stop offset="1" stop-color="#FAFAFA"/>
</radialGradient>
<radialGradient id="paint42_radial_953_23988" cx="0" cy="0" r="1" gradientUnits="userSpaceOnUse" gradientTransform="translate(298 136.542) rotate(83.9727) scale(527.358 456.705)">
<stop stop-color="#F3F3F3"/>
<stop offset="1" stop-color="#FAFAFA"/>
</radialGradient>
<radialGradient id="paint43_radial_953_23988" cx="0" cy="0" r="1" gradientUnits="userSpaceOnUse" gradientTransform="translate(298 136.542) rotate(83.9727) scale(527.358 456.705)">
<stop stop-color="#F3F3F3"/>
<stop offset="1" stop-color="#FAFAFA"/>
</radialGradient>
<radialGradient id="paint44_radial_953_23988" cx="0" cy="0" r="1" gradientUnits="userSpaceOnUse" gradientTransform="translate(298 136.542) rotate(83.9727) scale(527.358 456.705)">
<stop stop-color="#F3F3F3"/>
<stop offset="1" stop-color="#FAFAFA"/>
</radialGradient>
<radialGradient id="paint45_radial_953_23988" cx="0" cy="0" r="1" gradientUnits="userSpaceOnUse" gradientTransform="translate(298 136.542) rotate(83.9727) scale(527.358 456.705)">
<stop stop-color="#F3F3F3"/>
<stop offset="1" stop-color="#FAFAFA"/>
</radialGradient>
<radialGradient id="paint46_radial_953_23988" cx="0" cy="0" r="1" gradientUnits="userSpaceOnUse" gradientTransform="translate(298 136.542) rotate(83.9727) scale(527.358 456.705)">
<stop stop-color="#F3F3F3"/>
<stop offset="1" stop-color="#FAFAFA"/>
</radialGradient>
<radialGradient id="paint47_radial_953_23988" cx="0" cy="0" r="1" gradientUnits="userSpaceOnUse" gradientTransform="translate(298 136.542) rotate(83.9727) scale(527.358 456.705)">
<stop stop-color="#F3F3F3"/>
<stop offset="1" stop-color="#FAFAFA"/>
</radialGradient>
<radialGradient id="paint48_radial_953_23988" cx="0" cy="0" r="1" gradientUnits="userSpaceOnUse" gradientTransform="translate(298 136.542) rotate(83.9727) scale(527.358 456.705)">
<stop stop-color="#F3F3F3"/>
<stop offset="1" stop-color="#FAFAFA"/>
</radialGradient>
<radialGradient id="paint49_radial_953_23988" cx="0" cy="0" r="1" gradientUnits="userSpaceOnUse" gradientTransform="translate(298 136.542) rotate(83.9727) scale(527.358 456.705)">
<stop stop-color="#F3F3F3"/>
<stop offset="1" stop-color="#FAFAFA"/>
</radialGradient>
<radialGradient id="paint50_radial_953_23988" cx="0" cy="0" r="1" gradientUnits="userSpaceOnUse" gradientTransform="translate(298 136.542) rotate(83.9727) scale(527.358 456.705)">
<stop stop-color="#F3F3F3"/>
<stop offset="1" stop-color="#FAFAFA"/>
</radialGradient>
<radialGradient id="paint51_radial_953_23988" cx="0" cy="0" r="1" gradientUnits="userSpaceOnUse" gradientTransform="translate(298 136.542) rotate(83.9727) scale(527.358 456.705)">
<stop stop-color="#F3F3F3"/>
<stop offset="1" stop-color="#FAFAFA"/>
</radialGradient>
<radialGradient id="paint52_radial_953_23988" cx="0" cy="0" r="1" gradientUnits="userSpaceOnUse" gradientTransform="translate(298 136.542) rotate(83.9727) scale(527.358 456.705)">
<stop stop-color="#F3F3F3"/>
<stop offset="1" stop-color="#FAFAFA"/>
</radialGradient>
<radialGradient id="paint53_radial_953_23988" cx="0" cy="0" r="1" gradientUnits="userSpaceOnUse" gradientTransform="translate(298 136.542) rotate(83.9727) scale(527.358 456.705)">
<stop stop-color="#F3F3F3"/>
<stop offset="1" stop-color="#FAFAFA"/>
</radialGradient>
<radialGradient id="paint54_radial_953_23988" cx="0" cy="0" r="1" gradientUnits="userSpaceOnUse" gradientTransform="translate(298 136.542) rotate(83.9727) scale(527.358 456.705)">
<stop stop-color="#F3F3F3"/>
<stop offset="1" stop-color="#FAFAFA"/>
</radialGradient>
<radialGradient id="paint55_radial_953_23988" cx="0" cy="0" r="1" gradientUnits="userSpaceOnUse" gradientTransform="translate(298 136.542) rotate(83.9727) scale(527.358 456.705)">
<stop stop-color="#F3F3F3"/>
<stop offset="1" stop-color="#FAFAFA"/>
</radialGradient>
</defs>
</svg>
