<?xml version="1.0" encoding="UTF-8"?>
<svg width="20px" height="20px" viewBox="0 0 20 20" version="1.1" xmlns="http://www.w3.org/2000/svg" xmlns:xlink="http://www.w3.org/1999/xlink">
    <!-- Generator: Sketch 52.3 (67297) - http://www.bohemiancoding.com/sketch -->
    <title>Fill 1</title>
    <desc>Created with Sketch.</desc>
    <g id="Spex" stroke="none" stroke-width="1" fill="none" fill-rule="evenodd">
        <g id="ICONZZZ" transform="translate(-236.000000, -100.000000)" fill="#ff3366">
            <path d="M246,118 C241.58,118 238,114.42 238,110 C238,105.58 241.58,102 246,102 C250.42,102 254,105.58 254,110 C254,114.42 250.42,118 246,118 Z M245.99,100 C240.47,100 236,104.48 236,110 C236,115.52 240.47,120 245.99,120 C251.52,120 256,115.52 256,110 C256,104.48 251.52,100 245.99,100 Z M245,111 L247,111 L247,105 L245,105 L245,111 Z M245,115 L247,115 L247,113 L245,113 L245,115 Z" id="Fill-1"></path>
        </g>
    </g>
</svg>