<?xml version="1.0" standalone="no"?>
<!DOCTYPE svg PUBLIC "-//W3C//DTD SVG 20010904//EN"
 "http://www.w3.org/TR/2001/REC-SVG-20010904/DTD/svg10.dtd">
<svg
    version="1.0"
    xmlns="http://www.w3.org/2000/svg"
    width="255.000000pt"
    height="1280.000000pt"
    viewBox="0 0 255.000000 1280.000000"
    preserveAspectRatio="xMidYMid meet">

<defs>
    <linearGradient id="grad" x1="0%" y1="0%" x2="0%" y2="100%">
        <stop offset="0%" style="stop-color: #045fb4; stop-opacity: 1" />
        <stop offset="100%" style="stop-color: rgb(230, 250, 255); stop-opacity: 1" />
    </linearGradient>
</defs>

<g transform="translate(0.000000,1280.000000) scale(0.100000,-0.100000)"
    fill="url(#grad)" stroke="none">

<path d="M165 12710 c-82 -49 -154 -91 -159 -93 -5 -1 -7 -8 -5 -15 2 -7 69
27 167 83 l162 94 -2 -202 -3 -202 -160 -92 c-152 -88 -160 -94 -160 -123 0
-29 8 -35 160 -123 l160 -93 3 -202 2 -201 -157 91 c-87 50 -161 92 -166 95
-4 2 -7 -2 -7 -9 0 -7 70 -53 155 -102 85 -49 155 -92 155 -96 0 -4 -70 -48
-155 -96 -85 -49 -155 -95 -155 -102 0 -15 -11 -21 183 92 l147 86 -2 -203 -3
-202 -160 -92 c-152 -88 -160 -94 -160 -123 0 -29 8 -35 160 -123 l160 -93 3
-202 2 -201 -157 91 c-87 50 -161 92 -165 95 -5 2 -8 -2 -8 -9 0 -7 70 -53
155 -102 85 -49 155 -92 155 -96 0 -4 -70 -48 -155 -96 -85 -49 -155 -95 -155
-102 0 -15 -11 -21 183 92 l147 86 -2 -203 -3 -202 -160 -92 c-152 -88 -160
-94 -160 -123 0 -29 8 -35 160 -123 l160 -93 3 -202 2 -201 -157 91 c-87 50
-161 92 -165 95 -5 2 -8 -2 -8 -9 0 -7 70 -53 155 -102 85 -49 155 -92 155
-96 0 -4 -70 -48 -155 -96 -85 -49 -155 -95 -155 -102 0 -15 -11 -21 183 92
l147 86 -2 -203 -3 -202 -160 -92 c-152 -88 -160 -94 -160 -123 0 -29 8 -35
160 -123 l160 -93 3 -202 2 -201 -157 91 c-87 50 -161 92 -165 95 -5 2 -8 -2
-8 -9 0 -7 70 -53 155 -102 85 -49 155 -92 155 -96 0 -4 -70 -48 -155 -96 -85
-49 -155 -95 -155 -102 0 -15 -11 -21 183 92 l147 86 -2 -203 -3 -202 -160
-92 c-152 -88 -160 -94 -160 -123 0 -29 8 -35 160 -123 l160 -93 3 -202 2
-201 -157 91 c-87 50 -161 92 -165 95 -5 2 -8 -2 -8 -9 0 -7 70 -53 155 -102
85 -49 155 -92 155 -96 0 -4 -70 -48 -155 -96 -85 -49 -155 -95 -155 -102 0
-15 -11 -21 183 92 l147 86 -2 -203 -3 -202 -160 -92 c-152 -88 -160 -94 -160
-123 0 -29 8 -35 160 -123 l160 -93 3 -202 2 -201 -157 91 c-87 50 -161 92
-165 95 -5 2 -8 -2 -8 -9 0 -7 70 -53 155 -102 85 -49 155 -92 155 -96 0 -4
-70 -48 -155 -96 -85 -49 -155 -95 -155 -102 0 -15 -11 -21 183 92 l147 86 -2
-203 -3 -202 -160 -92 c-152 -88 -160 -94 -160 -123 0 -29 8 -35 160 -123
l160 -93 3 -202 2 -201 -157 91 c-87 50 -161 92 -165 95 -5 2 -8 -2 -8 -9 0
-7 70 -53 155 -102 85 -49 155 -92 155 -96 0 -4 -70 -48 -155 -96 -85 -49
-155 -95 -155 -102 0 -15 -11 -21 183 92 l147 86 -2 -203 -3 -202 -160 -92
c-152 -88 -160 -94 -160 -123 0 -29 8 -35 160 -123 l160 -93 3 -202 2 -201
-157 91 c-87 50 -161 92 -166 95 -4 2 -7 -2 -7 -9 0 -7 70 -53 155 -102 85
-49 155 -92 155 -96 0 -4 -70 -48 -155 -96 -85 -49 -155 -95 -155 -102 0 -15
-11 -21 183 92 l147 86 -2 -203 -3 -202 -160 -92 c-152 -88 -160 -94 -160
-123 0 -29 8 -35 160 -123 l160 -93 3 -202 2 -201 -157 91 c-87 50 -161 92
-165 95 -5 2 -8 -2 -8 -9 0 -7 70 -53 155 -102 85 -49 155 -92 155 -96 0 -4
-70 -48 -155 -96 -85 -49 -155 -95 -155 -102 0 -15 -11 -21 183 92 l147 86 -2
-203 -3 -202 -160 -92 c-152 -88 -160 -94 -160 -123 0 -29 8 -35 160 -123
l160 -93 3 -201 2 -202 -162 94 c-90 52 -165 89 -167 84 -4 -13 -20 -2 162
-108 87 -50 168 -91 181 -91 12 0 100 45 196 99 164 95 174 99 199 86 14 -7
93 -52 174 -99 82 -47 158 -86 171 -86 12 0 100 45 196 99 164 95 174 99 199
86 14 -7 93 -52 174 -99 82 -47 158 -86 171 -86 12 0 100 45 196 99 164 95
174 99 199 86 14 -7 93 -52 175 -99 136 -80 168 -94 152 -68 -3 5 -80 52 -171
103 l-165 94 0 199 c0 175 2 197 16 192 8 -3 85 -46 170 -96 92 -53 154 -84
152 -75 -2 8 -77 58 -167 109 l-163 94 38 24 c22 14 96 57 166 97 71 40 128
79 128 86 0 8 -70 -27 -170 -85 l-170 -98 0 201 1 202 167 95 c144 83 167 99
167 120 0 21 -23 38 -167 120 l-167 95 -1 199 c0 175 2 197 16 192 8 -3 85
-46 170 -96 92 -53 154 -84 152 -75 -2 8 -77 58 -167 109 l-163 94 38 24 c22
14 96 57 167 97 70 40 127 79 127 86 0 8 -70 -27 -170 -85 l-170 -98 0 201 1
202 167 95 c144 83 167 99 167 120 0 21 -23 38 -167 120 l-167 95 -1 199 c0
175 2 197 16 192 8 -3 85 -46 170 -96 92 -53 154 -84 152 -75 -2 8 -77 58
-167 109 l-163 94 38 24 c22 14 96 57 167 97 70 40 127 79 127 86 0 8 -70 -27
-170 -85 l-170 -98 0 201 1 202 167 95 c144 83 167 99 167 120 0 21 -23 38
-167 120 l-167 95 -1 199 c0 175 2 197 16 192 8 -3 85 -46 170 -96 92 -53 154
-84 152 -75 -2 8 -77 58 -167 109 l-163 94 38 24 c22 14 96 57 167 97 70 40
127 79 127 86 0 8 -70 -27 -170 -85 l-170 -98 0 201 1 202 167 95 c144 83 167
99 167 120 0 21 -23 38 -167 120 l-167 95 -1 199 c0 175 2 197 16 192 8 -3 85
-46 170 -96 92 -53 154 -84 152 -75 -2 8 -77 58 -167 109 l-163 94 38 24 c22
14 96 57 166 97 71 40 128 79 128 86 0 8 -70 -27 -170 -85 l-170 -98 0 201 1
202 167 95 c144 83 167 99 167 120 0 21 -23 38 -167 120 l-167 95 -1 199 c0
175 2 197 16 192 8 -3 85 -46 170 -96 92 -53 154 -84 152 -75 -2 8 -77 58
-167 109 l-163 94 38 24 c22 14 96 57 166 97 71 40 128 79 128 86 0 8 -70 -27
-170 -85 l-170 -98 0 201 1 202 167 95 c144 83 167 99 167 120 0 21 -23 38
-167 120 l-167 95 -1 199 c0 175 2 197 16 192 8 -3 85 -46 170 -96 92 -53 154
-84 152 -75 -2 8 -77 58 -167 109 l-163 94 38 24 c22 14 96 57 167 97 70 40
127 79 127 86 0 8 -70 -27 -170 -85 l-170 -98 0 201 1 202 167 95 c144 83 167
99 167 120 0 21 -23 38 -167 120 l-167 95 -1 199 c0 175 2 197 16 192 8 -3 85
-46 170 -96 92 -53 154 -84 152 -75 -2 8 -77 58 -167 109 l-163 94 38 24 c22
14 96 57 167 97 70 40 127 79 127 86 0 8 -70 -27 -170 -85 l-170 -98 0 201 1
202 167 95 c144 83 167 99 167 120 0 21 -23 38 -167 120 l-167 95 -1 199 c0
175 2 197 16 192 8 -3 85 -46 170 -96 92 -53 154 -84 152 -75 -2 8 -77 58
-167 109 l-163 94 38 24 c22 14 96 57 167 97 70 40 127 79 127 86 0 8 -70 -27
-170 -85 l-170 -98 0 201 1 202 167 95 c144 83 167 99 167 120 0 21 -23 38
-167 120 l-167 95 -1 199 c0 175 2 197 16 192 8 -3 85 -46 170 -96 92 -53 154
-84 152 -75 -2 8 -77 58 -167 109 l-163 94 38 24 c22 14 96 57 167 97 70 40
127 79 127 86 0 8 -70 -27 -170 -85 l-170 -98 0 201 1 202 165 94 c157 89 182
106 172 117 -3 2 -83 -41 -178 -95 l-173 -100 -36 19 c-20 10 -98 55 -175 99
-76 45 -149 81 -161 81 -12 0 -100 -45 -195 -100 l-173 -99 -36 19 c-20 10
-98 55 -175 99 -76 45 -149 81 -161 81 -12 0 -100 -45 -195 -100 l-173 -99
-36 19 c-20 10 -98 55 -175 99 -84 49 -149 81 -165 80 -14 0 -93 -41 -176 -89z
m893 -336 c-7 -6 -84 -52 -170 -102 l-158 -90 0 201 1 202 167 95 167 96 3
-195 c2 -148 -1 -198 -10 -207z m740 0 c-7 -6 -84 -52 -170 -102 l-158 -90 0
201 1 202 167 95 167 96 3 -195 c2 -148 -1 -198 -10 -207z m-1263 303 l160
-92 3 -202 2 -202 -169 97 -170 97 -1 198 c0 108 3 197 8 197 4 0 79 -42 167
-93z m740 0 l160 -92 3 -202 2 -202 -169 97 -170 97 -1 198 c0 108 3 197 8
197 4 0 79 -42 167 -93z m740 0 l160 -92 3 -202 2 -202 -169 97 -170 97 -1
198 c0 108 3 197 8 197 4 0 79 -42 167 -93z m-1497 -417 c89 -51 161 -97 160
-102 -2 -5 -77 -51 -167 -103 l-164 -94 -31 16 c-82 42 -306 176 -306 183 0
10 331 200 339 196 3 -1 79 -45 169 -96z m740 0 c89 -51 161 -97 160 -102 -2
-5 -77 -51 -167 -103 l-164 -94 -36 19 c-20 10 -98 54 -174 98 -136 79 -138
81 -115 96 58 38 322 185 327 182 3 -1 79 -45 169 -96z m740 0 c89 -51 161
-97 160 -102 -2 -5 -77 -51 -167 -103 l-164 -94 -36 19 c-20 10 -98 54 -174
98 -136 79 -138 81 -115 96 58 38 322 185 327 182 3 -1 79 -45 169 -96z
m-1302 -515 c-4 -11 -316 -195 -330 -195 -3 0 -6 89 -6 198 l1 197 167 95 167
96 3 -190 c1 -105 1 -195 -2 -201z m740 0 c-4 -11 -316 -195 -330 -195 -3 0
-6 89 -6 198 l1 197 167 95 167 96 3 -190 c1 -105 1 -195 -2 -201z m740 0 c-4
-11 -316 -195 -330 -195 -3 0 -6 89 -6 198 l1 197 167 95 167 96 3 -190 c1
-105 1 -195 -2 -201z m-1271 292 l160 -93 3 -201 2 -202 -169 97 -170 97 -1
198 c0 108 3 197 8 197 4 0 79 -42 167 -93z m740 0 l160 -93 3 -201 2 -202
-169 97 -170 97 -1 198 c0 108 3 197 8 197 4 0 79 -42 167 -93z m-740 -426
c77 -45 140 -86 140 -91 0 -6 -74 -53 -164 -105 -140 -80 -167 -92 -185 -83
-82 42 -316 182 -316 188 0 5 75 51 167 104 157 90 168 94 192 81 14 -7 89
-50 166 -94z m740 0 c77 -45 140 -86 140 -91 0 -6 -74 -53 -164 -105 -140 -80
-167 -92 -185 -83 -82 42 -316 182 -316 188 0 5 75 51 167 104 157 90 168 94
192 81 14 -7 89 -50 166 -94z m740 0 c77 -45 140 -86 140 -91 0 -6 -74 -53
-164 -105 -140 -80 -167 -92 -185 -83 -82 42 -316 182 -316 188 0 5 75 51 167
104 157 90 168 94 192 81 14 -7 89 -50 166 -94z m-1327 -517 c-7 -6 -84 -52
-170 -102 l-158 -90 0 201 1 202 167 95 167 96 3 -195 c2 -148 -1 -198 -10
-207z m740 0 c-7 -6 -84 -52 -170 -102 l-158 -90 0 201 1 202 167 95 167 96 3
-195 c2 -148 -1 -198 -10 -207z m-1263 303 l160 -92 3 -202 2 -202 -169 97
-170 97 -1 198 c0 108 3 197 8 197 4 0 79 -42 167 -93z m740 0 l160 -92 3
-202 2 -202 -169 97 -170 97 -1 198 c0 108 3 197 8 197 4 0 79 -42 167 -93z
m740 0 l160 -92 3 -202 2 -202 -169 97 -170 97 -1 198 c0 108 3 197 8 197 4 0
79 -42 167 -93z m-1497 -417 c89 -51 161 -97 160 -102 -2 -5 -77 -51 -167
-103 l-164 -94 -31 16 c-82 42 -306 176 -306 183 0 10 331 200 339 196 3 -1
79 -45 169 -96z m740 0 c89 -51 161 -97 160 -102 -2 -5 -77 -51 -167 -103
l-164 -94 -36 19 c-20 10 -98 54 -174 98 -136 79 -138 81 -115 96 58 38 322
185 327 182 3 -1 79 -45 169 -96z m740 0 c89 -51 161 -97 160 -102 -2 -5 -77
-51 -167 -103 l-164 -94 -36 19 c-20 10 -98 54 -174 98 -136 79 -138 81 -115
96 58 38 322 185 327 182 3 -1 79 -45 169 -96z m-1302 -515 c-4 -11 -316 -195
-330 -195 -3 0 -6 89 -6 198 l1 197 167 95 167 96 3 -190 c1 -105 1 -195 -2
-201z m740 0 c-4 -11 -316 -195 -330 -195 -3 0 -6 89 -6 198 l1 197 167 95
167 96 3 -190 c1 -105 1 -195 -2 -201z m740 0 c-4 -11 -316 -195 -330 -195 -3
0 -6 89 -6 198 l1 197 167 95 167 96 3 -190 c1 -105 1 -195 -2 -201z m-1271
292 l160 -93 3 -201 2 -202 -169 97 -170 97 -1 198 c0 108 3 197 8 197 4 0 79
-42 167 -93z m740 0 l160 -93 3 -201 2 -202 -169 97 -170 97 -1 198 c0 108 3
197 8 197 4 0 79 -42 167 -93z m-740 -426 c77 -45 140 -86 140 -91 0 -6 -74
-53 -164 -105 -140 -80 -167 -92 -185 -83 -82 42 -316 182 -316 188 0 5 75 51
167 104 157 90 168 94 192 81 14 -7 89 -50 166 -94z m740 0 c77 -45 140 -86
140 -91 0 -6 -74 -53 -164 -105 -140 -80 -167 -92 -185 -83 -82 42 -316 182
-316 188 0 5 75 51 167 104 157 90 168 94 192 81 14 -7 89 -50 166 -94z m740
0 c77 -45 140 -86 140 -91 0 -6 -74 -53 -164 -105 -140 -80 -167 -92 -185 -83
-82 42 -316 182 -316 188 0 5 75 51 167 104 157 90 168 94 192 81 14 -7 89
-50 166 -94z m-1327 -517 c-7 -6 -84 -52 -170 -102 l-158 -90 0 201 1 202 167
95 167 96 3 -195 c2 -148 -1 -198 -10 -207z m740 0 c-7 -6 -84 -52 -170 -102
l-158 -90 0 201 1 202 167 95 167 96 3 -195 c2 -148 -1 -198 -10 -207z m-1263
303 l160 -92 3 -202 2 -202 -169 97 -170 97 -1 198 c0 108 3 197 8 197 4 0 79
-42 167 -93z m740 0 l160 -92 3 -202 2 -202 -169 97 -170 97 -1 198 c0 108 3
197 8 197 4 0 79 -42 167 -93z m740 0 l160 -92 3 -202 2 -202 -169 97 -170 97
-1 198 c0 108 3 197 8 197 4 0 79 -42 167 -93z m-1497 -417 c89 -51 161 -97
160 -102 -2 -5 -77 -51 -167 -103 l-164 -94 -31 16 c-82 42 -306 176 -306 183
0 10 331 200 339 196 3 -1 79 -45 169 -96z m740 0 c89 -51 161 -97 160 -102
-2 -5 -77 -51 -167 -103 l-164 -94 -36 19 c-20 10 -98 54 -174 98 -136 79
-138 81 -115 96 58 38 322 185 327 182 3 -1 79 -45 169 -96z m740 0 c89 -51
161 -97 160 -102 -2 -5 -77 -51 -167 -103 l-164 -94 -36 19 c-20 10 -98 54
-174 98 -136 79 -138 81 -115 96 58 38 322 185 327 182 3 -1 79 -45 169 -96z
m-1302 -515 c-4 -11 -316 -195 -330 -195 -3 0 -6 89 -6 198 l1 197 167 95 167
96 3 -190 c1 -105 1 -195 -2 -201z m740 0 c-4 -11 -316 -195 -330 -195 -3 0
-6 89 -6 198 l1 197 167 95 167 96 3 -190 c1 -105 1 -195 -2 -201z m740 0 c-4
-11 -316 -195 -330 -195 -3 0 -6 89 -6 198 l1 197 167 95 167 96 3 -190 c1
-105 1 -195 -2 -201z m-1271 292 l160 -93 3 -201 2 -202 -169 97 -170 97 -1
198 c0 108 3 197 8 197 4 0 79 -42 167 -93z m740 0 l160 -93 3 -201 2 -202
-169 97 -170 97 -1 198 c0 108 3 197 8 197 4 0 79 -42 167 -93z m-740 -426
c77 -45 140 -86 140 -91 0 -6 -74 -53 -164 -105 -140 -80 -167 -92 -185 -83
-82 42 -316 182 -316 188 0 5 75 51 167 104 157 90 168 94 192 81 14 -7 89
-50 166 -94z m740 0 c77 -45 140 -86 140 -91 0 -6 -74 -53 -164 -105 -140 -80
-167 -92 -185 -83 -82 42 -316 182 -316 188 0 5 75 51 167 104 157 90 168 94
192 81 14 -7 89 -50 166 -94z m740 0 c77 -45 140 -86 140 -91 0 -6 -74 -53
-164 -105 -140 -80 -167 -92 -185 -83 -82 42 -316 182 -316 188 0 5 75 51 167
104 157 90 168 94 192 81 14 -7 89 -50 166 -94z m-1327 -517 c-7 -6 -84 -52
-170 -102 l-158 -90 0 201 1 202 167 95 167 96 3 -195 c2 -148 -1 -198 -10
-207z m740 0 c-7 -6 -84 -52 -170 -102 l-158 -90 0 201 1 202 167 95 167 96 3
-195 c2 -148 -1 -198 -10 -207z m-1263 303 l160 -92 3 -202 2 -202 -169 97
-170 97 -1 198 c0 108 3 197 8 197 4 0 79 -42 167 -93z m740 0 l160 -92 3
-202 2 -202 -169 97 -170 97 -1 198 c0 108 3 197 8 197 4 0 79 -42 167 -93z
m740 0 l160 -92 3 -202 2 -202 -169 97 -170 97 -1 198 c0 108 3 197 8 197 4 0
79 -42 167 -93z m-1497 -417 c89 -51 161 -97 160 -102 -2 -5 -77 -51 -167
-103 l-164 -94 -31 16 c-82 42 -306 176 -306 183 0 10 331 200 339 196 3 -1
79 -45 169 -96z m740 0 c89 -51 161 -97 160 -102 -2 -5 -77 -51 -167 -103
l-164 -94 -36 19 c-20 10 -98 54 -174 98 -136 79 -138 81 -115 96 58 38 322
185 327 182 3 -1 79 -45 169 -96z m740 0 c89 -51 161 -97 160 -102 -2 -5 -77
-51 -167 -103 l-164 -94 -36 19 c-20 10 -98 54 -174 98 -136 79 -138 81 -115
96 58 38 322 185 327 182 3 -1 79 -45 169 -96z m-1302 -515 c-4 -11 -316 -195
-330 -195 -3 0 -6 89 -6 198 l1 197 167 95 167 96 3 -190 c1 -105 1 -195 -2
-201z m740 0 c-4 -11 -316 -195 -330 -195 -3 0 -6 89 -6 198 l1 197 167 95
167 96 3 -190 c1 -105 1 -195 -2 -201z m740 0 c-4 -11 -316 -195 -330 -195 -3
0 -6 89 -6 198 l1 197 167 95 167 96 3 -190 c1 -105 1 -195 -2 -201z m-1271
292 l160 -93 3 -201 2 -202 -169 97 -170 97 -1 198 c0 108 3 197 8 197 4 0 79
-42 167 -93z m740 0 l160 -93 3 -201 2 -202 -169 97 -170 97 -1 198 c0 108 3
197 8 197 4 0 79 -42 167 -93z m-740 -426 c77 -45 140 -86 140 -91 0 -6 -74
-53 -164 -105 -140 -80 -167 -92 -185 -83 -82 42 -316 182 -316 188 0 5 75 51
167 104 157 90 168 94 192 81 14 -7 89 -50 166 -94z m740 0 c77 -45 140 -86
140 -91 0 -6 -74 -53 -164 -105 -140 -80 -167 -92 -185 -83 -82 42 -316 182
-316 188 0 5 75 51 167 104 157 90 168 94 192 81 14 -7 89 -50 166 -94z m740
0 c77 -45 140 -86 140 -91 0 -6 -74 -53 -164 -105 -140 -80 -167 -92 -185 -83
-82 42 -316 182 -316 188 0 5 75 51 167 104 157 90 168 94 192 81 14 -7 89
-50 166 -94z m-1327 -517 c-7 -6 -84 -52 -170 -102 l-158 -90 0 201 1 202 167
95 167 96 3 -195 c2 -148 -1 -198 -10 -207z m740 0 c-7 -6 -84 -52 -170 -102
l-158 -90 0 201 1 202 167 95 167 96 3 -195 c2 -148 -1 -198 -10 -207z m-1263
303 l160 -92 3 -202 2 -202 -169 97 -170 97 -1 198 c0 108 3 197 8 197 4 0 79
-42 167 -93z m740 0 l160 -92 3 -202 2 -202 -169 97 -170 97 -1 198 c0 108 3
197 8 197 4 0 79 -42 167 -93z m740 0 l160 -92 3 -202 2 -202 -169 97 -170 97
-1 198 c0 108 3 197 8 197 4 0 79 -42 167 -93z m-1497 -417 c89 -51 161 -97
160 -102 -2 -5 -77 -51 -167 -103 l-164 -94 -31 16 c-82 42 -306 176 -306 183
0 10 331 200 339 196 3 -1 79 -45 169 -96z m740 0 c89 -51 161 -97 160 -102
-2 -5 -77 -51 -167 -103 l-164 -94 -36 19 c-20 10 -98 54 -174 98 -136 79
-138 81 -115 96 58 38 322 185 327 182 3 -1 79 -45 169 -96z m740 0 c89 -51
161 -97 160 -102 -2 -5 -77 -51 -167 -103 l-164 -94 -36 19 c-20 10 -98 54
-174 98 -136 79 -138 81 -115 96 58 38 322 185 327 182 3 -1 79 -45 169 -96z
m-1302 -515 c-4 -11 -316 -195 -330 -195 -3 0 -6 89 -6 198 l1 197 167 95 167
96 3 -190 c1 -105 1 -195 -2 -201z m740 0 c-4 -11 -316 -195 -330 -195 -3 0
-6 89 -6 198 l1 197 167 95 167 96 3 -190 c1 -105 1 -195 -2 -201z m740 0 c-4
-11 -316 -195 -330 -195 -3 0 -6 89 -6 198 l1 197 167 95 167 96 3 -190 c1
-105 1 -195 -2 -201z m-1271 292 l160 -93 3 -201 2 -202 -169 97 -170 97 -1
198 c0 108 3 197 8 197 4 0 79 -42 167 -93z m740 0 l160 -93 3 -201 2 -202
-169 97 -170 97 -1 198 c0 108 3 197 8 197 4 0 79 -42 167 -93z m-740 -426
c77 -45 140 -86 140 -91 0 -6 -74 -53 -164 -105 -140 -80 -167 -92 -185 -83
-82 42 -316 182 -316 188 0 5 75 51 167 104 157 90 168 94 192 81 14 -7 89
-50 166 -94z m740 0 c77 -45 140 -86 140 -91 0 -6 -74 -53 -164 -105 -140 -80
-167 -92 -185 -83 -82 42 -316 182 -316 188 0 5 75 51 167 104 157 90 168 94
192 81 14 -7 89 -50 166 -94z m740 0 c77 -45 140 -86 140 -91 0 -6 -74 -53
-164 -105 -140 -80 -167 -92 -185 -83 -82 42 -316 182 -316 188 0 5 75 51 167
104 157 90 168 94 192 81 14 -7 89 -50 166 -94z m-1327 -517 c-7 -6 -84 -52
-170 -102 l-158 -90 0 201 1 202 167 95 167 96 3 -195 c2 -148 -1 -198 -10
-207z m740 0 c-7 -6 -84 -52 -170 -102 l-158 -90 0 201 1 202 167 95 167 96 3
-195 c2 -148 -1 -198 -10 -207z m-1263 303 l160 -92 3 -202 2 -202 -169 97
-170 97 -1 198 c0 108 3 197 8 197 4 0 79 -42 167 -93z m740 0 l160 -92 3
-202 2 -202 -169 97 -170 97 -1 198 c0 108 3 197 8 197 4 0 79 -42 167 -93z
m740 0 l160 -92 3 -202 2 -202 -169 97 -170 97 -1 198 c0 108 3 197 8 197 4 0
79 -42 167 -93z m-1497 -417 c89 -51 161 -97 160 -102 -2 -5 -77 -51 -167
-103 l-164 -94 -31 16 c-82 42 -306 176 -306 183 0 10 331 200 339 196 3 -1
79 -45 169 -96z m740 0 c89 -51 161 -97 160 -102 -2 -5 -77 -51 -167 -103
l-164 -94 -36 19 c-20 10 -98 54 -174 98 -136 79 -138 81 -115 96 58 38 322
185 327 182 3 -1 79 -45 169 -96z m740 0 c89 -51 161 -97 160 -102 -2 -5 -77
-51 -167 -103 l-164 -94 -36 19 c-20 10 -98 54 -174 98 -136 79 -138 81 -115
96 58 38 322 185 327 182 3 -1 79 -45 169 -96z m-1302 -515 c-4 -11 -316 -195
-330 -195 -3 0 -6 89 -6 198 l1 197 167 95 167 96 3 -190 c1 -105 1 -195 -2
-201z m740 0 c-4 -11 -316 -195 -330 -195 -3 0 -6 89 -6 198 l1 197 167 95
167 96 3 -190 c1 -105 1 -195 -2 -201z m740 0 c-4 -11 -316 -195 -330 -195 -3
0 -6 89 -6 198 l1 197 167 95 167 96 3 -190 c1 -105 1 -195 -2 -201z m-1271
292 l160 -93 3 -201 2 -202 -169 97 -170 97 -1 198 c0 108 3 197 8 197 4 0 79
-42 167 -93z m740 0 l160 -93 3 -201 2 -202 -169 97 -170 97 -1 198 c0 108 3
197 8 197 4 0 79 -42 167 -93z m-740 -426 c77 -45 140 -86 140 -91 0 -6 -74
-53 -164 -105 -140 -80 -167 -92 -185 -83 -82 42 -316 182 -316 188 0 5 75 51
167 104 157 90 168 94 192 81 14 -7 89 -50 166 -94z m740 0 c77 -45 140 -86
140 -91 0 -6 -74 -53 -164 -105 -140 -80 -167 -92 -185 -83 -82 42 -316 182
-316 188 0 5 75 51 167 104 157 90 168 94 192 81 14 -7 89 -50 166 -94z m740
0 c77 -45 140 -86 140 -91 0 -6 -74 -53 -164 -105 -140 -80 -167 -92 -185 -83
-82 42 -316 182 -316 188 0 5 75 51 167 104 157 90 168 94 192 81 14 -7 89
-50 166 -94z m-1327 -517 c-7 -6 -84 -52 -170 -102 l-158 -90 0 201 1 202 167
95 167 96 3 -195 c2 -148 -1 -198 -10 -207z m740 0 c-7 -6 -84 -52 -170 -102
l-158 -90 0 201 1 202 167 95 167 96 3 -195 c2 -148 -1 -198 -10 -207z m-1263
303 l160 -92 3 -202 2 -202 -169 97 -170 97 -1 198 c0 108 3 197 8 197 4 0 79
-42 167 -93z m740 0 l160 -92 3 -202 2 -202 -169 97 -170 97 -1 198 c0 108 3
197 8 197 4 0 79 -42 167 -93z m740 0 l160 -92 3 -202 2 -202 -169 97 -170 97
-1 198 c0 108 3 197 8 197 4 0 79 -42 167 -93z m-1497 -417 c89 -51 161 -97
160 -102 -2 -5 -77 -51 -167 -103 l-164 -94 -31 16 c-82 42 -306 176 -306 183
0 10 331 200 339 196 3 -1 79 -45 169 -96z m740 0 c89 -51 161 -97 160 -102
-2 -5 -77 -51 -167 -103 l-164 -94 -36 19 c-20 10 -98 54 -174 98 -136 79
-138 81 -115 96 58 38 322 185 327 182 3 -1 79 -45 169 -96z m740 0 c89 -51
161 -97 160 -102 -2 -5 -77 -51 -167 -103 l-164 -94 -36 19 c-20 10 -98 54
-174 98 -136 79 -138 81 -115 96 58 38 322 185 327 182 3 -1 79 -45 169 -96z
m-1302 -515 c-4 -11 -316 -195 -330 -195 -3 0 -6 89 -6 198 l1 197 167 95 167
96 3 -190 c1 -105 1 -195 -2 -201z m740 0 c-4 -11 -316 -195 -330 -195 -3 0
-6 89 -6 198 l1 197 167 95 167 96 3 -190 c1 -105 1 -195 -2 -201z m740 0 c-4
-11 -316 -195 -330 -195 -3 0 -6 89 -6 198 l1 197 167 95 167 96 3 -190 c1
-105 1 -195 -2 -201z m-1271 292 l160 -93 3 -201 2 -202 -169 97 -170 97 -1
198 c0 108 3 197 8 197 4 0 79 -42 167 -93z m740 0 l160 -93 3 -201 2 -202
-169 97 -170 97 -1 198 c0 108 3 197 8 197 4 0 79 -42 167 -93z m-740 -426
c77 -45 140 -86 140 -91 0 -6 -74 -53 -164 -105 -140 -80 -167 -92 -185 -83
-82 42 -316 182 -316 188 0 5 75 51 167 104 157 90 168 94 192 81 14 -7 89
-50 166 -94z m740 0 c77 -45 140 -86 140 -91 0 -6 -74 -53 -164 -105 -140 -80
-167 -92 -185 -83 -82 42 -316 182 -316 188 0 5 75 51 167 104 157 90 168 94
192 81 14 -7 89 -50 166 -94z m740 0 c77 -45 140 -86 140 -91 0 -6 -74 -53
-164 -105 -140 -80 -167 -92 -185 -83 -82 42 -316 182 -316 188 0 5 75 51 167
104 157 90 168 94 192 81 14 -7 89 -50 166 -94z m-1327 -517 c-7 -6 -84 -52
-170 -102 l-158 -90 0 201 1 202 167 95 167 96 3 -195 c2 -148 -1 -198 -10
-207z m740 0 c-7 -6 -84 -52 -170 -102 l-158 -90 0 201 1 202 167 95 167 96 3
-195 c2 -148 -1 -198 -10 -207z m-1263 303 l160 -92 3 -202 2 -202 -169 97
-170 97 -1 198 c0 108 3 197 8 197 4 0 79 -42 167 -93z m740 0 l160 -92 3
-202 2 -202 -169 97 -170 97 -1 198 c0 108 3 197 8 197 4 0 79 -42 167 -93z
m740 0 l160 -92 3 -202 2 -202 -169 97 -170 97 -1 198 c0 108 3 197 8 197 4 0
79 -42 167 -93z m-1497 -417 c89 -51 161 -97 160 -102 -2 -5 -77 -51 -167
-103 l-164 -94 -31 16 c-82 42 -306 176 -306 183 0 10 331 200 339 196 3 -1
79 -45 169 -96z m740 0 c89 -51 161 -97 160 -102 -2 -5 -77 -51 -167 -103
l-164 -94 -36 19 c-20 10 -98 54 -174 98 -136 79 -138 81 -115 96 58 38 322
185 327 182 3 -1 79 -45 169 -96z m740 0 c89 -51 161 -97 160 -102 -2 -5 -77
-51 -167 -103 l-164 -94 -36 19 c-20 10 -98 54 -174 98 -136 79 -138 81 -115
96 58 38 322 185 327 182 3 -1 79 -45 169 -96z m-1302 -515 c-4 -11 -316 -195
-330 -195 -3 0 -6 89 -6 198 l1 197 167 95 167 96 3 -190 c1 -105 1 -195 -2
-201z m740 0 c-4 -11 -316 -195 -330 -195 -3 0 -6 89 -6 198 l1 197 167 95
167 96 3 -190 c1 -105 1 -195 -2 -201z m740 0 c-4 -11 -316 -195 -330 -195 -3
0 -6 89 -6 198 l1 197 167 95 167 96 3 -190 c1 -105 1 -195 -2 -201z m-1271
292 l160 -93 3 -201 2 -202 -169 97 -170 97 -1 198 c0 108 3 197 8 197 4 0 79
-42 167 -93z m740 0 l160 -93 3 -201 2 -202 -169 97 -170 97 -1 198 c0 108 3
197 8 197 4 0 79 -42 167 -93z m-740 -426 c77 -45 140 -86 140 -91 0 -6 -74
-53 -164 -105 -140 -80 -167 -92 -185 -83 -82 42 -316 182 -316 188 0 5 75 51
167 104 157 90 168 94 192 81 14 -7 89 -50 166 -94z m740 0 c77 -45 140 -86
140 -91 0 -6 -74 -53 -164 -105 -140 -80 -167 -92 -185 -83 -82 42 -316 182
-316 188 0 5 75 51 167 104 157 90 168 94 192 81 14 -7 89 -50 166 -94z m740
0 c77 -45 140 -86 140 -91 0 -6 -74 -53 -164 -105 -140 -80 -167 -92 -185 -83
-82 42 -316 182 -316 188 0 5 75 51 167 104 157 90 168 94 192 81 14 -7 89
-50 166 -94z m-1327 -517 c-7 -6 -84 -52 -170 -102 l-158 -90 0 201 1 202 167
95 167 96 3 -195 c2 -148 -1 -198 -10 -207z m740 0 c-7 -6 -84 -52 -170 -102
l-158 -90 0 201 1 202 167 95 167 96 3 -195 c2 -148 -1 -198 -10 -207z m-1263
303 l160 -92 3 -202 2 -202 -169 97 -170 97 -1 198 c0 108 3 197 8 197 4 0 79
-42 167 -93z m740 0 l160 -92 3 -202 2 -202 -169 97 -170 97 -1 198 c0 108 3
197 8 197 4 0 79 -42 167 -93z m740 0 l160 -92 3 -202 2 -202 -169 97 -170 97
-1 198 c0 108 3 197 8 197 4 0 79 -42 167 -93z m-1497 -417 c89 -51 161 -97
160 -102 -2 -5 -77 -51 -167 -103 l-164 -94 -31 16 c-82 42 -306 176 -306 183
0 10 331 200 339 196 3 -1 79 -45 169 -96z m740 0 c89 -51 161 -97 160 -102
-2 -5 -77 -51 -167 -103 l-164 -94 -36 19 c-20 10 -98 54 -174 98 -136 79
-138 81 -115 96 58 38 322 185 327 182 3 -1 79 -45 169 -96z m740 0 c89 -51
161 -97 160 -102 -2 -5 -77 -51 -167 -103 l-164 -94 -36 19 c-20 10 -98 54
-174 98 -136 79 -138 81 -115 96 58 38 322 185 327 182 3 -1 79 -45 169 -96z
m-1302 -515 c-4 -11 -316 -195 -330 -195 -3 0 -6 89 -6 198 l1 197 167 95 167
96 3 -190 c1 -105 1 -195 -2 -201z m740 0 c-4 -11 -316 -195 -330 -195 -3 0
-6 89 -6 198 l1 197 167 95 167 96 3 -190 c1 -105 1 -195 -2 -201z m740 0 c-4
-11 -316 -195 -330 -195 -3 0 -6 89 -6 198 l1 197 167 95 167 96 3 -190 c1
-105 1 -195 -2 -201z m-1271 292 l160 -93 3 -201 2 -202 -169 97 -170 97 -1
198 c0 108 3 197 8 197 4 0 79 -42 167 -93z m740 0 l160 -93 3 -201 2 -202
-169 97 -170 97 -1 198 c0 108 3 197 8 197 4 0 79 -42 167 -93z m-740 -426
c77 -45 140 -86 140 -91 0 -6 -74 -53 -164 -105 -140 -80 -167 -92 -185 -83
-82 42 -316 182 -316 188 0 5 75 51 167 104 157 90 168 94 192 81 14 -7 89
-50 166 -94z m740 0 c77 -45 140 -86 140 -91 0 -6 -74 -53 -164 -105 -140 -80
-167 -92 -185 -83 -82 42 -316 182 -316 188 0 5 75 51 167 104 157 90 168 94
192 81 14 -7 89 -50 166 -94z m740 0 c77 -45 140 -86 140 -91 0 -6 -74 -53
-164 -105 -140 -80 -167 -92 -185 -83 -82 42 -316 182 -316 188 0 5 75 51 167
104 157 90 168 94 192 81 14 -7 89 -50 166 -94z m-1327 -517 c-7 -6 -84 -52
-170 -102 l-158 -90 0 201 1 202 167 95 167 96 3 -195 c2 -148 -1 -198 -10
-207z m740 0 c-7 -6 -84 -52 -170 -102 l-158 -90 0 201 1 202 167 95 167 96 3
-195 c2 -148 -1 -198 -10 -207z m-1263 303 l160 -92 3 -202 2 -202 -169 97
-170 97 -1 198 c0 108 3 197 8 197 4 0 79 -42 167 -93z m740 0 l160 -92 3
-202 2 -202 -169 97 -170 97 -1 198 c0 108 3 197 8 197 4 0 79 -42 167 -93z
m740 0 l160 -92 3 -202 2 -202 -169 97 -170 97 -1 198 c0 108 3 197 8 197 4 0
79 -42 167 -93z m-1497 -417 c89 -51 161 -97 160 -102 -2 -5 -77 -51 -167
-103 l-164 -94 -31 16 c-82 42 -306 176 -306 183 0 10 331 200 339 196 3 -1
79 -45 169 -96z m740 0 c89 -51 161 -97 160 -102 -2 -5 -77 -51 -167 -103
l-164 -94 -36 19 c-20 10 -98 54 -174 98 -136 79 -138 81 -115 96 58 38 322
185 327 182 3 -1 79 -45 169 -96z m740 0 c89 -51 161 -97 160 -102 -2 -5 -77
-51 -167 -103 l-164 -94 -36 19 c-20 10 -98 54 -174 98 -136 79 -138 81 -115
96 58 38 322 185 327 182 3 -1 79 -45 169 -96z m-1302 -515 c-4 -11 -316 -195
-330 -195 -3 0 -6 89 -6 198 l1 197 167 95 167 96 3 -190 c1 -105 1 -195 -2
-201z m740 0 c-4 -11 -316 -195 -330 -195 -3 0 -6 89 -6 198 l1 197 167 95
167 96 3 -190 c1 -105 1 -195 -2 -201z m740 0 c-4 -11 -316 -195 -330 -195 -3
0 -6 89 -6 198 l1 197 167 95 167 96 3 -190 c1 -105 1 -195 -2 -201z m-1271
292 l160 -93 3 -201 2 -202 -169 97 -170 97 -1 198 c0 108 3 197 8 197 4 0 79
-42 167 -93z m740 0 l160 -93 3 -201 2 -202 -169 97 -170 97 -1 198 c0 108 3
197 8 197 4 0 79 -42 167 -93z"/>
</g>
</svg>
