<svg width="596px" height="671px" viewBox="0 0 596 671" version="1.1" xmlns="http://www.w3.org/2000/svg" xmlns:xlink="http://www.w3.org/1999/xlink">
    <!-- Generator: Sketch 54 (76480) - https://sketchapp.com -->
    <title>••• HuzzahAlt</title>
    <desc>Created with Sketch.</desc>
    <defs>
        <radialGradient cx="50%" cy="24.2104549%" fx="50%" fy="24.2104549%" r="80.0653923%" gradientTransform="translate(0.500000,0.242105),scale(1.000000,0.890555),rotate(90.000000),translate(-0.500000,-0.242105)" id="radialGradient-1">
            <stop stop-color="#00C7FF" offset="0%"></stop>
            <stop stop-color="#0055DE" offset="100%"></stop>
        </radialGradient>
        <polygon id="path-2" points="0.0384684709 0.714600314 216.410217 0.714600314 216.410217 252.480008 0.0384684709 252.480008"></polygon>
        <polygon id="path-4" points="0.132164936 0.386648926 251.132165 0.386648926 251.132165 293.386649 10.2669676 293.235521"></polygon>
        <polygon id="path-6" points="2.72848411e-12 0.79574752 219.596434 0.79574752 219.596434 133.795748 2.72848411e-12 133.795748"></polygon>
        <polygon id="path-8" points="0 0 113.462256 0 113.462256 186.619423 0 186.619423"></polygon>
    </defs>
    <g id="Symbols" stroke="none" stroke-width="1" fill="none" fill-rule="evenodd">
        <g id="LoginBasse" transform="translate(-3.000000, -33.000000)">
            <g id="•••-HuzzahAlt">
                <polygon id="MessagePaneBG" fill="url(#radialGradient-1)" fill-rule="nonzero" points="3 33 597.779989 33 598.781302 700.760646 3 702"></polygon>
                <g id="ugh222" transform="translate(3.000000, 34.000000)">
                    <g id="Group-69" transform="translate(-350.000000, -13.000000)">
                        <g id="Group-65">
                            <polygon id="Fill-14" fill="#FFFFFF" opacity="0.106952195" points="324.314045 252.728999 432.420408 189.727337 432.420408 63.7200989 324.314045 0.714521922 216.207683 63.7200989 216.207683 189.727337"></polygon>
                            <polygon id="Fill-16" fill="#036FD8" points="432.418856 441.741422 540.525219 378.735845 540.525219 252.728607 432.418856 189.726946 324.312494 252.728607 324.312494 378.735845"></polygon>
                            <polygon id="Fill-18" fill="#013A69" opacity="0.76297433" points="324.314045 630.75228 432.420408 567.746703 432.420408 441.74338 324.314045 378.737803 216.207683 441.74338 216.207683 567.746703"></polygon>
                            <polygon id="Fill-20" fill="#0C3E75" points="432.418856 819.594295 540.525219 756.588718 540.525219 630.585395 432.418856 567.579818 324.312494 630.585395 324.312494 756.588718"></polygon>
                            <polygon id="Fill-25" fill="#FFFFFF" opacity="0.05" points="540.523667 252.728999 648.63003 189.727337 648.63003 63.7200989 540.523667 0.714521922 432.417305 63.7200989 432.417305 189.727337"></polygon>
                            <polygon id="Fill-27" fill="#045BAD" opacity="0.2" points="648.628478 441.741422 756.734841 378.735845 756.734841 252.728607 648.628478 189.726946 540.522116 252.728607 540.522116 378.735845"></polygon>
                            <polygon id="Fill-29" fill="#024482" opacity="0.89015532" points="539.523667 630.75228 647.63003 567.746703 647.63003 441.74338 539.523667 378.737803 431.417305 441.74338 431.417305 567.746703"></polygon>
                            <polygon id="Fill-31" fill="#0C3E75" points="647.628478 819.594295 755.734841 756.588718 755.734841 630.585395 647.628478 567.579818 539.522116 630.585395 539.522116 756.588718"></polygon>
                            <polygon id="Fill-36" fill="#075394" opacity="0.192824591" style="mix-blend-mode: multiply;" points="864.836549 441.741422 972.942911 378.735845 972.942911 252.728607 864.836549 189.726946 756.734065 252.728607 756.734065 378.735845"></polygon>
                            <polygon id="Fill-38" fill="#095191" points="754.733677 630.75228 862.836161 567.746703 862.836161 441.74338 754.733677 378.737803 646.627314 441.74338 646.627314 567.746703"></polygon>
                            <polygon id="Fill-40" fill="#0C3E75" points="862.836549 819.594295 970.942911 756.588718 970.942911 630.585395 862.836549 567.579818 754.734065 630.585395 754.734065 756.588718"></polygon>
                            <polygon id="Fill-45" fill="#50E3C2" opacity="0.0640438988" points="972.94136 252.728999 1081.04772 189.727337 1081.04772 63.7200989 972.94136 0.714521922 864.834997 63.7200989 864.834997 189.727337"></polygon>
                            <polygon id="Fill-49" fill="#012C50" opacity="0.618466332" points="970.94136 630.75228 1079.04772 567.746703 1079.04772 441.74338 970.94136 378.737803 862.834997 441.74338 862.834997 567.746703"></polygon>
                        </g>
                        <g id="Group-68" opacity="0.0813337054" transform="translate(648.199172, 0.000000)">
                            <mask id="mask-3" fill="white">
                                <use xlink:href="#path-2"></use>
                            </mask>
                            <g id="Clip-67"></g>
                            <polygon id="Fill-66" fill="#FFFFFF" style="mix-blend-mode: multiply;" mask="url(#mask-3)" points="108.226283 252.480008 216.410217 189.540417 216.410217 63.6573215 108.226283 0.71381797 0.0384684709 63.6573215 0.0384684709 189.540417"></polygon>
                        </g>
                    </g>
                </g>
                <g id="Desktop-Icon" transform="translate(306.942724, 224.565721) rotate(1.000000) translate(-306.942724, -224.565721) translate(180.942724, 77.565721)">
                    <mask id="mask-5" fill="white">
                        <use xlink:href="#path-4"></use>
                    </mask>
                    <g id="Mask" fill-rule="nonzero"></g>
                    <g id="SD-Logo" mask="url(#mask-5)">
                        <g transform="translate(10.525993, 0.659056)">
                            <polygon id="Fill-1" fill="#FFFFFF" points="112.445809 29.6325879 17.615942 84.0523678 18.7231589 191.025805 114.662052 243.58122 209.491919 189.163197 208.382893 82.1880027"></polygon>
                            <polygon id="Fill-1" fill="#0B5BB4" points="110.819048 125.779113 6.41191945 71.1800939 6.5232598 77.5587781 111.007117 136.553575 213.478063 73.9463686 210.161331 67.9831892"></polygon>
                            <g id="Top" stroke-width="1" fill="none" transform="translate(0.000000, 0.000000)">
                                <path d="M155.520841,154.005023 L179.767934,139.164384 C181.448426,138.142336 183.64394,138.718285 184.647311,140.435661 C184.899692,140.925741 185.152074,141.539389 185.164385,142.15932 L185.607592,166.064352 C185.6712,169.532613 183.908633,172.787249 180.908781,174.580022 L156.171288,189.181904 L155.520841,154.005023 Z M192.645548,185.629869 C197.687023,182.559536 200.617111,176.925706 200.506309,170.979816 L199.593222,121.561283 C199.509094,116.976728 195.799291,113.33254 191.430834,113.416315 C189.976049,113.445636 188.648481,113.84147 187.44813,114.608006 L138.477906,144.794025 L139.832149,218.117591 L192.645548,185.629869 Z M113.648078,259.510534 L111.300725,132.42892 L217.883701,66.8146965 L220.229002,193.770648 L113.648078,259.510534 Z" id="D" fill="#0075F7"></path>
                                <mask id="mask-7" fill="white">
                                    <use xlink:href="#path-6"></use>
                                </mask>
                                <g id="Clip-4"></g>
                                <path d="M128.418477,92.5469191 L151.285157,78.6348125 L117.449991,66.7579606 C118.098721,65.5196555 118.476802,64.1516631 118.45201,62.7899458 C118.321851,55.8516722 108.272742,50.46128 96.0419194,50.6955539 C83.8110967,50.9298278 73.9727221,56.8347861 74.0987492,63.6391888 C74.2268423,70.4414999 84.2780167,75.965763 96.5088394,75.7335808 C98.1223989,75.7022048 99.7318264,75.5348663 101.34332,75.3675278 L128.418477,92.5469191 Z M110.663124,132.779284 L0.982395289,71.5145582 L108.2996,5.9826999 L217.982395,67.370838 L110.663124,132.779284 Z" id="Fill-3" fill="#0B5BB4" mask="url(#mask-7)"></path>
                            </g>
                            <g id="S" stroke-width="1" fill="none" transform="translate(1.184003, 71.630902)">
                                <mask id="mask-9" fill="white">
                                    <use xlink:href="#path-8"></use>
                                </mask>
                                <g id="Clip-7"></g>
                                <path d="M26.4216022,94.1218038 L65.3207114,115.483045 L65.1658932,107.26463 L26.2646919,85.9013143 L25.4382977,42.4756402 L82.2230888,73.5653944 L82.5557386,90.9854475 L41.1544332,68.3215394 L41.3113435,76.5378802 L82.7105568,99.2038626 L83.5453196,142.998764 L26.7605285,111.90901 L26.4216022,94.1218038 Z M2.39340509,125.742581 L113.462883,186.619423 L111.067386,60.7544575 L0,0 L2.39340509,125.742581 Z" id="Fill-6" fill="#0C3E75" mask="url(#mask-9)"></path>
                            </g>
                        </g>
                    </g>
                </g>
            </g>
        </g>
    </g>
</svg>