<?xml version="1.0" encoding="UTF-8" standalone="no"?>
<svg
   xmlns:dc="http://purl.org/dc/elements/1.1/"
   xmlns:cc="http://creativecommons.org/ns#"
   xmlns:rdf="http://www.w3.org/1999/02/22-rdf-syntax-ns#"
   xmlns:svg="http://www.w3.org/2000/svg"
   xmlns="http://www.w3.org/2000/svg"
   xmlns:xlink="http://www.w3.org/1999/xlink"
   xmlns:sodipodi="http://sodipodi.sourceforge.net/DTD/sodipodi-0.dtd"
   xmlns:inkscape="http://www.inkscape.org/namespaces/inkscape"
   width="596"
   height="671"
   viewBox="0 0 596 671"
   version="1.1"
   id="svg48"
   sodipodi:docname="login_bg2.svg"
   inkscape:version="0.92.3 (2405546, 2018-03-11)">
  <metadata
     id="metadata52">
    <rdf:RDF>
      <cc:Work
         rdf:about="">
        <dc:format>image/svg+xml</dc:format>
        <dc:type
           rdf:resource="http://purl.org/dc/dcmitype/StillImage" />
        <dc:title> LoginBasse</dc:title>
      </cc:Work>
    </rdf:RDF>
  </metadata>
  <sodipodi:namedview
     pagecolor="#ffffff"
     bordercolor="#666666"
     borderopacity="1"
     objecttolerance="10"
     gridtolerance="10"
     guidetolerance="10"
     inkscape:pageopacity="0"
     inkscape:pageshadow="2"
     inkscape:window-width="972"
     inkscape:window-height="871"
     id="namedview50"
     showgrid="false"
     inkscape:zoom="0.35171386"
     inkscape:cx="303.68644"
     inkscape:cy="335.5"
     inkscape:window-x="944"
     inkscape:window-y="147"
     inkscape:window-maximized="0"
     inkscape:current-layer="svg48" />
  <style
     id="style2">.a{fill:#0C3E75;}</style>
  <title
     id="title4"> LoginBasse</title>
  <desc
     id="desc6"> Created with Sketch.</desc>
  <defs
     id="defs14">
    <radialGradient
       cx="50"
       cy="24.2"
       fx="50%"
       fy="24.2104549%"
       r="80.3"
       gradientTransform="translate(0.500000,0.242105),scale(1.000000,0.888227),rotate(90.000000),translate(-0.500000,-0.242105)"
       id="radialGradient-1">
      <stop
         stop-color="#00C7FF"
         offset="0%"
         id="stop8" />
      <stop
         stop-color="#0055DE"
         offset="100%"
         id="stop10" />
    </radialGradient>
    <polygon
       id="path-2"
       points="0 0.7 216.4 0.7 216.4 252.5 0 252.5" />
  </defs>
  <g
     id="LoginBasse"
     fill="none">
    <g
       id="•••-HuzzahAlt">
      <polygon
         id="MessagePaneBG"
         points="0 0 596 0 595.8 669.8 0 671"
         fill="url(#radialGradient-1)" />
      <g
         id="ugh222">
        <g
           id="Group-69"
           transform="translate(-351 -17)">
          <g
             id="Group-65">
            <polygon
               id="Fill-14"
               points="324.3 252.7 432.4 189.7 432.4 63.7 324.3 0.7 216.2 63.7 216.2 189.7"
               style="fill:#FFF;opacity:0.1" />
            <polygon
               id="Fill-16"
               points="432.4 441.7 540.5 378.7 540.5 252.7 432.4 189.7 324.3 252.7 324.3 378.7"
               style="fill:#036FD8;opacity:0.5" />
            <polygon
               id="Fill-18"
               points="324.3 630.8 432.4 567.7 432.4 441.7 324.3 378.7 216.2 441.7 216.2 567.7"
               style="fill:#013A69;opacity:0.8" />
            <polygon
               id="Fill-20"
               points="432.4 819.6 540.5 756.6 540.5 630.6 432.4 567.6 324.3 630.6 324.3 756.6"
               class="a" />
            <polygon
               id="Fill-25"
               points="540.5 252.7 648.6 189.7 648.6 63.7 540.5 0.7 432.4 63.7 432.4 189.7"
               style="fill:#FFF;opacity:0.05" />
            <polygon
               id="Fill-27"
               points="648.6 441.7 756.7 378.7 756.7 252.7 648.6 189.7 540.5 252.7 540.5 378.7"
               style="fill:#045BAD;opacity:0.2" />
            <polygon
               id="Fill-29"
               points="539.5 630.8 647.6 567.7 647.6 441.7 539.5 378.7 431.4 441.7 431.4 567.7"
               style="fill:#024482;opacity:0.9" />
            <polygon
               id="Fill-31"
               points="647.6 819.6 755.7 756.6 755.7 630.6 647.6 567.6 539.5 630.6 539.5 756.6"
               class="a" />
            <polygon
               id="Fill-36"
               points="864.8 441.7 972.9 378.7 972.9 252.7 864.8 189.7 756.7 252.7 756.7 378.7"
               style="fill:#075394;mix-blend-mode:multiply;opacity:0.2" />
            <polygon
               id="Fill-38"
               points="754.7 630.8 862.8 567.7 862.8 441.7 754.7 378.7 646.6 441.7 646.6 567.7"
               fill="#095191" />
            <polygon
               id="Fill-40"
               points="862.8 819.6 970.9 756.6 970.9 630.6 862.8 567.6 754.7 630.6 754.7 756.6"
               class="a" />
            <polygon
               id="Fill-45"
               points="972.9 252.7 1081 189.7 1081 63.7 972.9 0.7 864.8 63.7 864.8 189.7"
               style="fill:#50E3C2;opacity:0.06" />
            <polygon
               id="Fill-49"
               points="970.9 630.8 1079 567.7 1079 441.7 970.9 378.7 862.8 441.7 862.8 567.7"
               style="fill:#012C50;opacity:0.6" />
          </g>
          <g
             id="Group-68"
             transform="translate(648.199172 0)"
             opacity="0.08">
            <mask
               id="mask-3"
               fill="white">
              <use
                 xlink:href="#path-2"
                 id="use31" />
            </mask>
            <polygon
               id="Fill-66"
               mask="url(#mask-3)"
               points="108.2 252.5 216.4 189.5 216.4 63.7 108.2 0.7 0 63.7 0 189.5"
               style="fill:#FFF;mix-blend-mode:multiply" />
          </g>
        </g>
      </g>
      <g
         id="Nu-Icon"
         transform="translate(189 47)">
        <polygon
           id="Fill-1"
           points="109 123.3 109 254 218 188.7 218 58"
           fill="#045FB4" />
        <polygon
           id="Fill-2"
           points="0 58.5 109 124 218 58.5 109 0"
           fill="#2E8AE8" />
        <polygon
           id="Fill-3"
           points="0 188.7 109 254 109 123.3 0 58"
           fill="#093D70" />
        <g
           id="Group-10"
           transform="translate(26 38)"
           fill="#FFF">
          <path
             d="M127.7 108.4L152.5 93.7C154.3 92.6 156.4 93.3 157.4 95 157.7 95.6 157.8 96.2 157.9 96.8L157.9 121.2C157.9 124.8 156 128.2 153 129.9L127.8 144.5 127.7 108.4ZM164.7 141.6C169.8 138.5 173 132.8 173 126.7L173 76C173 71.3 169.3 67.5 164.9 67.5 163.5 67.5 162.1 67.9 160.8 68.6L110.8 98.6 110.8 173.8 164.7 141.6Z"
             id="Fill-4" />
          <path
             d="M92.1 47.1L125 27.9 88 17.3C88.7 16.1 89.1 14.6 89.1 13.2 89.1 6.2 79.2 0.3 66.9 0.3 54.6 0.3 44.6 6.2 44.6 13.2 44.6 20.3 54.6 26.2 66.9 26.2 68.5 26.2 70.1 26.1 71.7 25.9L92.1 47.1Z"
             id="Fill-6" />
          <polygon
             id="Fill-8"
             points="0.1 119.6 38.2 142.4 38.2 133.9 0.1 111.1 0.1 66 55.9 99.3 55.9 117.3 15.2 93.1 15.2 101.6 55.9 125.9 55.9 171.4 0.1 138.1" />
        </g>
      </g>
    </g>
  </g>
</svg>
