<?xml version="1.0" encoding="UTF-8"?>
<svg width="18px" height="18px" viewBox="0 0 18 18" version="1.1" xmlns="http://www.w3.org/2000/svg" xmlns:xlink="http://www.w3.org/1999/xlink">
    <!-- Generator: Sketch 52.3 (67297) - http://www.bohemiancoding.com/sketch -->
    <title>Fill 1</title>
    <desc>Created with Sketch.</desc>
    <g id="Spex" stroke="none" stroke-width="1" fill="none" fill-rule="evenodd">
        <g id="ICONZZZ" transform="translate(-297.000000, -100.000000)" fill="#383838">
            <path d="M296,108.5 C296,105.46 298.46,103 301.5,103 L312,103 C314.21,103 316,104.79 316,107 C316,109.21 314.21,111 312,111 L303.5,111 C302.12,111 301,109.88 301,108.5 C301,107.12 302.12,106 303.5,106 L311,106 L311,108 L303.41,108 C302.86,108 302.86,109 303.41,109 L312,109 C313.1,109 314,108.1 314,107 C314,105.9 313.1,105 312,105 L301.5,105 C299.57,105 298,106.57 298,108.5 C298,110.43 299.57,112 301.5,112 L311,112 L311,114 L301.5,114 C298.46,114 296,111.54 296,108.5" id="Fill-1" transform="translate(306.000000, 108.500000) rotate(-128.000000) translate(-306.000000, -108.500000) "></path>
        </g>
    </g>
</svg>