<?xml version="1.0" encoding="UTF-8"?>
<svg width="16px" height="17px" viewBox="0 0 16 17" version="1.1" xmlns="http://www.w3.org/2000/svg" xmlns:xlink="http://www.w3.org/1999/xlink">
    <!-- Generator: Sketch 52.3 (67297) - http://www.bohemiancoding.com/sketch -->
    <title>Fill 1</title>
    <desc>Created with Sketch.</desc>
    <g id="Spex" stroke="none" stroke-width="1" fill="none" fill-rule="evenodd">
        <g id="ICONZZZ" transform="translate(-131.000000, -103.000000)" fill="white">
            <path d="M139.055645,117.435029 C135.745645,117.435029 133.055645,114.745029 133.055645,111.435029 C133.055645,110.425029 133.305645,109.465029 133.755645,108.635029 L132.295645,107.175029 C131.515645,108.405029 131.055645,109.865029 131.055645,111.435029 C131.055645,115.855029 134.635645,119.435029 139.055645,119.435029 L139.055645,122.435029 L143.055645,118.435029 L139.055645,114.435029 L139.055645,117.435029 Z M139.055645,103.435029 L139.055645,100.435029 L135.055645,104.435029 L139.055645,108.435029 L139.055645,105.435029 C142.365645,105.435029 145.055645,108.125029 145.055645,111.435029 C145.055645,112.445029 144.805645,113.405029 144.355645,114.235029 L145.815645,115.695029 C146.595645,114.465029 147.055645,113.005029 147.055645,111.435029 C147.055645,107.015029 143.475645,103.435029 139.055645,103.435029 Z" id="Fill-1" transform="translate(139.055645, 111.435029) scale(-1, 1) rotate(-45.000000) translate(-139.055645, -111.435029) "></path>
        </g>
    </g>
</svg>
