<svg width="16" height="15" viewBox="0 0 16 15" xmlns="http://www.w3.org/2000/svg"><title> Refresh</title><desc> Created with Sketch.</desc><defs><polygon points="0 0 15.1 0 15.1 15 0 15"/></defs><g fill="none"><g transform="translate(-14 -14)translate(0 2)translate(14 12)"><mask fill="white"></mask><path d="M6.9 13C3.8 12.6 1.6 9.8 2 6.7 2.4 3.7 5.3 1.6 8.4 2 9.5 2.1 10.4 2.6 11.2 3.2L9 5.1 15.1 6.5 14.8 0.2 12.7 1.9C11.6 0.9 10.3 0.3 8.7 0.1 4.5-0.5 0.7 2.4 0.1 6.5 -0.5 10.6 2.4 14.4 6.6 14.9 9.5 15.3 12.2 14.1 13.8 11.9L12.3 10.7C11.1 12.4 9 13.3 6.9 13" mask="url(#mask-2)" fill="#FFF"/></g></g></svg>