<?xml version="1.0" encoding="UTF-8"?> <svg width="576px" height="8px" viewBox="0 0 576 8" version="1.1" xmlns="http://www.w3.org/2000/svg" xmlns:xlink="http://www.w3.org/1999/xlink"> <title>Fill 1</title> <g id="•••-Current-Screens-To-Zeplin" stroke="none" stroke-width="1" fill="none" fill-rule="evenodd"> <g id="Menu—PostDataPurge" transform="translate(-1006.000000, -534.000000)" fill="#A5B3E9"> <polygon id="Fill-1" points="1408.496 534 1402.744 540 1396.992 534 1391.238 540.001 1385.48 534.001 1379.725 540.001 1373.967 534.001 1368.211 540.001 1362.455 534.001 1356.698 540.001 1350.941 534.001 1345.186 540.001 1339.43 534.001 1333.672 540.001 1327.916 534.001 1322.161 540.001 1316.405 534.001 1310.647 540.001 1304.893 534.001 1299.137 540.001 1293.382 534.001 1287.625 540.001 1281.87 534.001 1276.115 540.001 1270.36 534.001 1264.606 540.001 1258.849 534.001 1253.093 540.001 1247.338 534.001 1241.584 540 1235.831 534.001 1230.076 540.001 1224.32 534.001 1218.564 540.001 1212.809 534.001 1207.055 540 1201.303 534 1195.55 540.001 1189.795 534.001 1184.04 540.001 1178.283 534.001 1172.529 540.001 1166.776 534 1161.023 540 1155.27 534 1149.518 540 1143.765 534.001 1138.01 540.001 1132.254 534.001 1126.499 540.001 1120.745 534 1114.993 540 1109.242 534 1103.491 540 1097.739 534 1091.987 540 1086.233 534 1080.479 540.001 1074.723 534.001 1068.969 540 1063.216 534 1057.464 540 1051.713 534 1045.963 540 1040.212 534 1034.461 540 1028.71 534 1022.959 540 1017.207 534 1011.452 540.001 1006.057 534.377 1006 535.732 1011.452 541.445 1017.207 535.445 1022.959 541.446 1028.71 535.445 1034.461 541.446 1040.212 535.445 1045.963 541.446 1051.713 535.445 1057.464 541.446 1063.216 535.445 1068.969 541.446 1074.723 535.445 1080.479 541.445 1086.233 535.445 1091.987 541.446 1097.739 535.445 1103.491 541.446 1109.242 535.445 1114.993 541.446 1120.745 535.445 1126.499 541.445 1132.254 535.445 1138.01 541.445 1143.765 535.445 1149.518 541.446 1155.27 535.445 1161.023 541.446 1166.776 535.445 1172.529 541.445 1178.283 535.445 1184.04 541.445 1189.795 535.445 1195.55 541.446 1201.303 535.445 1207.055 541.446 1212.809 535.445 1218.564 541.445 1224.32 535.445 1230.076 541.445 1235.831 535.445 1241.584 541.446 1247.338 535.445 1253.093 541.445 1258.849 535.445 1264.606 541.445 1270.36 535.445 1276.115 541.445 1281.87 535.445 1287.625 541.445 1293.382 535.445 1299.137 541.445 1304.893 535.445 1310.647 541.445 1316.405 535.445 1322.161 541.445 1327.916 535.445 1333.672 541.445 1339.43 535.445 1345.186 541.445 1350.941 535.445 1356.698 541.445 1362.455 535.445 1368.211 541.445 1373.967 535.445 1379.725 541.445 1385.48 535.445 1391.238 541.445 1396.992 535.445 1402.744 541.446 1408.496 535.445 1414.25 541.445 1420.009 535.445 1425.763 541.445 1431.516 535.445 1437.273 541.445 1443.029 535.445 1448.785 541.445 1454.54 535.445 1460.299 541.445 1466.054 535.445 1471.813 541.445 1477.569 535.445 1483.327 541.445 1489.085 535.445 1494.844 541.445 1500.602 535.445 1506.361 541.445 1512.121 535.445 1517.881 541.445 1523.641 535.445 1529.399 541.445 1535.154 535.445 1540.912 541.445 1546.673 535.445 1552.434 541.445 1558.195 535.444 1563.956 541.445 1569.716 535.444 1575.479 541.445 1581.247 535.444 1581.247 534.002 1575.479 540.001 1569.716 534.002 1563.956 540.001 1558.195 534.001 1552.434 540.001 1546.673 534.001 1540.912 540.001 1535.154 534.001 1529.399 540.001 1523.641 534.001 1517.881 540.001 1512.121 534.001 1506.361 540.001 1500.602 534.001 1494.844 540.001 1489.085 534.001 1483.327 540.001 1477.569 534.001 1471.813 540.001 1466.054 534.001 1460.299 540.001 1454.54 534.001 1448.785 540.001 1443.029 534.001 1437.273 540.001 1431.516 534.001 1425.763 540.001 1420.009 534.001 1414.25 540.001"></polygon> </g> </g> </svg>